<svg xmlns="http://www.w3.org/2000/svg" viewBox="0 0 52.1 170.47"><defs><style>.cls-1{fill:#122259;}.cls-2{fill:#efa0a0;}.cls-3{fill:#fbd66f;}.cls-4{fill:#e56064;}.cls-5{fill:#fff;}.cls-6{fill:none;stroke:#122259;stroke-linecap:round;stroke-linejoin:round;stroke-width:0.46px;}</style></defs><title>people6</title><g id="Слой_2" data-name="Слой 2"><g id="Layer_1" data-name="Layer 1"><path class="cls-1" d="M15.79,156.34s1.13,1.06,1.13,4.56c0,1.6-2.08,2-4,2-2.49,0-1.81,6.4-9.45,6.4-4.32,0-4.17-3.66-2.09-5.59,4.06-3.79,6.65-3.46,9.29-7.34Z"/><path class="cls-2" d="M15.79,156.49s-.53.91-2.54.91a3.62,3.62,0,0,1-2.55-.91v-3.05h5.09Z"/><path class="cls-2" d="M34.76,156.88a6.22,6.22,0,0,0,3,.52,5.38,5.38,0,0,0,3-.92l-.3-3H34.73Z"/><path class="cls-3" d="M14.57,85.06s-4.46,18.16-5.63,30.46c-.67,7,1.33,38.29,1.33,38.29h5.8s1.95-27.36,3.69-34.06c3.92-15.15,9.59-31.2,9.59-31.2l5,65.26h7.49s2-28.7,2.53-35.74c.61-8.23.85-33,.85-33Z"/><path class="cls-4" d="M44.06,48.68l6.74-1.42c-.6-7.78-2.68-12.39-8.36-15.86-2.1-1.28-8.91-1.92-8.91-1.92h-6.8a16.6,16.6,0,0,0-7.54,1.81C15.05,33.62,12.12,38.5,10.47,47l6.07,1.52s-2.37,27.36-3,36.06a5.8,5.8,0,0,0,5.69,5.83c5.68,0,5.27-2,7.86-3.57a8.57,8.57,0,0,1,4.85-1.76h8.53c2.24,0,4,.47,4.84,0,.49-.29,1.26-6.16,1.24-6.6C46,69,45.87,62.8,44.06,48.67Z"/><polygon class="cls-2" points="33.53 29.48 30.07 29.48 26.73 29.48 26.73 20.97 33.53 20.97 33.53 29.48"/><path class="cls-2" d="M38.34,16.53a8.22,8.22,0,0,1-8.21,8.21h0a8.21,8.21,0,0,1-8.21-8.21V12.25A8.2,8.2,0,0,1,30.13,4h0a8.21,8.21,0,0,1,8.21,8.21Z"/><path class="cls-2" d="M21.59,30.28a2.81,2.81,0,0,0,.67,1.79c1.46,2.12,4.51,7.13,7.91,7.13s6.46-5,7.91-7.13c.61-.89.69-1.47.52-1.87-2.46-.48-5-.72-5-.72h-7A18.1,18.1,0,0,0,21.59,30.28Z"/><path class="cls-2" d="M10.62,47l6,1.46L14.84,63.11a3.52,3.52,0,0,1-3.65,2.83,3,3,0,0,1-2.51-3.33Z"/><path class="cls-2" d="M10.15,60.45a3,3,0,0,0-1.12,4H9a3,3,0,0,0,4,1.13L26.91,56a1.24,1.24,0,0,0-1.25-2.14Z"/><rect class="cls-1" x="24.65" y="48.1" width="12.81" height="5.99" transform="translate(-23.54 75.45) rotate(-82.76)"/><path class="cls-2" d="M26.91,56a8.23,8.23,0,0,0,7.7-5.61c.46-1.35-1.15-1.93-3.25.42-1.42,1.59-3.76,2.79-3.5,1.45.11-.54.5-2-.12-2.2-1-.37-2.08,3.8-2.08,3.8Z"/><path class="cls-2" d="M39.72,15.68c-.3.91-1.09,1.46-1.76,1.23a1.57,1.57,0,0,1-.67-2.05c.31-.9,1.1-1.45,1.77-1.22A1.54,1.54,0,0,1,39.72,15.68Z"/><path class="cls-2" d="M20.36,15.68c.31.91,1.1,1.46,1.77,1.23a1.57,1.57,0,0,0,.67-2.05c-.31-.9-1.1-1.45-1.77-1.22A1.55,1.55,0,0,0,20.36,15.68Z"/><path class="cls-2" d="M44.09,48.67l6.53-1.36L52,67.64a3.5,3.5,0,0,1-2.13,4.09,2.94,2.94,0,0,1-3.67-2Z"/><path class="cls-2" d="M45.86,67.19a3.32,3.32,0,0,1,4.46-1.41h0a3.3,3.3,0,0,1,1.41,4.45L43.32,90.8c-.84,1.62-4.66-1.23-3.82-2.85Z"/><path class="cls-1" d="M40.64,156.21c.34.67.3,2.29.71,3.21,1.07,2.38,2.63,3.56,4,5.94.78,1.38.48,4.71-3.28,5.08a4.82,4.82,0,0,1-5.53-3.93,58,58,0,0,0-1.79-8.7c-.57-2,1.87-2.66,3.22-2.63C39,155.2,40.22,155.38,40.64,156.21Z"/><path class="cls-1" d="M21.92,15.27c-.94,5.7,3.89,9.47,8.21,9.47a8.05,8.05,0,0,0,8.17-8.65s-2.13,4.34-8.95,3.16C23,18.16,21.92,15.27,21.92,15.27Z"/><path class="cls-1" d="M25,8.66s-3,3.59-3,6.61c0,0-1-5,1-7Z"/><path class="cls-1" d="M32.29,7.15s5.76,3.47,6,8.94a18.56,18.56,0,0,1,0-2.4C38.2,13.33,39,5.18,32.29,7.15Z"/><path class="cls-1" d="M38.07,10.17a4.47,4.47,0,0,0-4.94-2.25c-3.49.71-7.61,4.23-10.4.77S21.87.27,24,.19c0,0-1.36,3.85,5.14.35C32.5-1.26,39.61,1.29,38.07,10.17Z"/><path class="cls-1" d="M38.28,13.69s3-5.7-.12-9.65A8.83,8.83,0,0,1,38,5.35,12,12,0,0,0,38.28,13.69Z"/><path class="cls-5" d="M37.53,16.94a3.51,3.51,0,1,1-3.11-3.88A3.51,3.51,0,0,1,37.53,16.94Z"/><path class="cls-5" d="M29,16a3.51,3.51,0,1,1-3.11-3.87A3.51,3.51,0,0,1,29,16Z"/><path class="cls-6" d="M28.31,16.09a2.37,2.37,0,0,1,2.62.26"/></g></g></svg>