<svg xmlns="http://www.w3.org/2000/svg" viewBox="0 0 54.36 173.17"><defs><style>.cls-1{fill:#e56064;}.cls-2{fill:#122259;}.cls-3{fill:#fff;}.cls-4{fill:#efa0a0;}.cls-5{fill:#00002e;}.cls-6{fill:#ed9495;}.cls-7{fill:#c4c6cb;}.cls-8{fill:#afaeb4;}</style></defs><title>people10</title><g id="Слой_2" data-name="Слой 2"><g id="Layer_1" data-name="Layer 1"><path class="cls-1" d="M41.37,89.75l2.79-53.62c0-1.73-1.52-2.83-3.13-3.48C38.4,31.59,30.91,29.1,30.91,29.1l-4,4-4.08-4s-7.14,2.2-9.4,3.5c-1.5.86-3.3,2-3.3,2.84L13,89.75Z"/><path class="cls-2" d="M12.38,87.24,14,126.86l4.66,31.59a8.15,8.15,0,0,0,2.92.35c2.1,0,2.35-.21,2.35-.21l3.8-55.06,2.73,55.06s.24.21,2.35.21a8.12,8.12,0,0,0,2.91-.35l4.67-31.59,1.07-39.62Z"/><path class="cls-3" d="M13.42,32.35c1.92-.78,6.34-2.33,9.34-3.25,0,0,1,74.64,1,88.24a13.41,13.41,0,0,1-5.19,2.46c-4.81,1.31-7,.51-7,.51L10.16,36C10.16,34.17,11.75,33,13.42,32.35Z"/><path class="cls-4" d="M31.12,29.19s-.17,4.34-4.18,4.34c-3.76,0-4.18-4.34-4.18-4.34V25.1h8.36Z"/><path class="cls-4" d="M36.19,20.3c0,1.77-4.57,7.22-9.25,7.22-4.51,0-9.24-5.09-9.24-7.22V13.45A9.25,9.25,0,0,1,26.94,4.2h0a9.25,9.25,0,0,1,9.25,9.25Z"/><path class="cls-4" d="M37.84,17.32c-.34,1-1.23,1.64-2,1.38a1.74,1.74,0,0,1-.74-2.3c.34-1,1.23-1.64,2-1.39A1.76,1.76,0,0,1,37.84,17.32Z"/><path class="cls-4" d="M16,17.32c.34,1,1.23,1.64,2,1.38a1.75,1.75,0,0,0,.75-2.3c-.35-1-1.23-1.64-2-1.39A1.76,1.76,0,0,0,16,17.32Z"/><path class="cls-5" d="M18.68,158.45c-.35.7-.62,2.35-1,3.3-1.11,2.47-2.72,3.69-4.12,6.14-.81,1.43-.5,4.87,3.39,5.24a5,5,0,0,0,5.71-4c.57-3.69.41-6.33,1.31-9.83.35-1.37-1.34-1.94-2.74-1.91A2.63,2.63,0,0,0,18.68,158.45Z"/><path class="cls-5" d="M35.64,158.45c.35.7.62,2.35,1,3.3,1.1,2.47,2.71,3.69,4.1,6.14.82,1.43.51,4.87-3.38,5.24a5,5,0,0,1-5.72-4c-.56-3.69-.4-6.33-1.3-9.83-.35-1.37,1.34-1.94,2.74-1.91A2.63,2.63,0,0,1,35.64,158.45Z"/><path class="cls-3" d="M11.55,33.4S0,37.55,0,68.67H9.19s1.28-16.55,1.3-19.84A97.58,97.58,0,0,1,11.55,33.4Z"/><polygon class="cls-3" points="9.13 96.03 2.16 96.03 0 68.67 9.19 68.24 9.13 96.03"/><path class="cls-6" d="M6.87,109h0a2.35,2.35,0,0,0-.22-.26c-1-1.06-2-1.93-2-2.75,0-.64,0-1.1,0-1.81s1-2.37,1.5-2.37,1.31,1.64,1.58,2a1.45,1.45,0,0,0,.17.18c-.64.16-1.79.78-1,3.24C7,107.68,7.84,108.4,6.87,109Z"/><path class="cls-4" d="M3.49,98a29.41,29.41,0,0,0-.85,7.26c0,1.65.93,4.17,3.33,4.8.25.06.92,0,1-.22s.14-.57-.36-1.1c-1-1.06-1.71-1.91-1.71-2.74,0-.64,0-1.1,0-1.81s.72-2.38,1.22-2.38,1.31,1.64,1.58,2c.82,1,2.17.75,1.45-.4A8.08,8.08,0,0,1,7.9,98Z"/><rect class="cls-7" x="2.64" y="96.03" width="5.96" height="2.77"/><path class="cls-3" d="M42.81,33.4s11.55,4.15,11.55,35.27H45.17s-1.28-16.55-1.3-19.84A97.58,97.58,0,0,0,42.81,33.4Z"/><polygon class="cls-3" points="45.22 96.03 52.2 96.03 54.36 68.67 45.12 68.09 45.22 96.03"/><path class="cls-6" d="M47.49,109h0a2.35,2.35,0,0,1,.22-.26c1-1.06,1.95-2,1.95-2.77,0-.65,0-1.1,0-1.82s-1-2.34-1.46-2.34-1.31,1.64-1.58,2c-.06.06-.11.13-.17.18.64.16,1.79.78,1,3.24C47.34,107.68,46.52,108.4,47.49,109Z"/><path class="cls-4" d="M50.87,98a29.09,29.09,0,0,1,.86,7.26c0,1.65-.94,4.17-3.34,4.8-.25.06-.92,0-1-.22s-.14-.57.36-1.1c1-1.06,1.7-1.91,1.7-2.74,0-.64,0-1.1,0-1.81s-.72-2.38-1.22-2.38-1.31,1.64-1.58,2c-.82,1-2.17.75-1.45-.4A8.15,8.15,0,0,0,46.46,98Z"/><rect class="cls-7" x="45.76" y="96.03" width="5.96" height="2.77"/><path class="cls-3" d="M40.9,32.35C39,31.57,34.13,30,31.12,29.13c0,0,.13,74.91.13,88.52a11,11,0,0,0,5.2,2.45c5,1.16,7,.53,7,.53L44.16,36C44.16,34.17,42.58,33,40.9,32.35Z"/><path class="cls-2" d="M18.51,16.57c.13-2.27.51-7.18,8.11-7.18s8.3,4.93,8.35,7.18h.82l.4-1.48s2.43-5.79-4.43-11c-.48-.37-2.23-1.15-1.64-2.8a5,5,0,0,0-3.31,2.12A9.33,9.33,0,0,1,29,0s-9.69-.18-11.9,8.73a13.68,13.68,0,0,0,.51,7.84Z"/><path class="cls-2" d="M16.5,42.22c-.33-5.44.57-9.39,2.68-11.75a5.6,5.6,0,0,1,3.56-2l.05.94,0-.47,0,.47c-.25,0-6.09.53-5.35,12.74Z"/><path class="cls-2" d="M37.38,42.14l-.94-.06c.74-12.22-5.1-12.73-5.35-12.75l.05-.94a5.6,5.6,0,0,1,3.56,2C36.81,32.74,37.71,36.69,37.38,42.14Z"/><rect class="cls-7" x="34.57" y="81.63" width="6.53" height="2.65"/><rect class="cls-7" x="14.03" y="81.63" width="6.53" height="2.65"/><path class="cls-8" d="M35,53.68a2.82,2.82,0,0,1-2.17-.84,3.41,3.41,0,0,1-.76-2.35V46.58a4.76,4.76,0,0,1,4.56-4.93,4.76,4.76,0,0,1,4.55,4.93v4.3a2.7,2.7,0,0,1-2.76,2.75v-.9a1.84,1.84,0,0,0,1.86-1.87V46.58a3.85,3.85,0,0,0-3.65-4,3.85,3.85,0,0,0-3.65,4v3.94a2.43,2.43,0,0,0,.52,1.71,2,2,0,0,0,1.5.55Z"/><path class="cls-2" d="M39.54,53.23a.77.77,0,0,1-.76.77H38.4a.77.77,0,0,1-.76-.77h0a.76.76,0,0,1,.76-.76h.38a.76.76,0,0,1,.76.76Z"/><path class="cls-2" d="M35.75,53.23A.77.77,0,0,1,35,54h-.37a.78.78,0,0,1-.77-.77h0a.77.77,0,0,1,.77-.76H35a.76.76,0,0,1,.76.76Z"/><path class="cls-8" d="M19.35,43.23A2.38,2.38,0,1,1,17,40.85,2.38,2.38,0,0,1,19.35,43.23Z"/><path class="cls-2" d="M18.23,43.23A1.26,1.26,0,1,1,17,42,1.25,1.25,0,0,1,18.23,43.23Z"/></g></g></svg>