<svg xmlns="http://www.w3.org/2000/svg" viewBox="0 0 75.92 161.87"><defs><style>.cls-1{fill:#804e4f;}.cls-2{fill:#efa0a0;}.cls-3{fill:#122259;}.cls-4{fill:#fff;}.cls-5{fill:#e56064;}.cls-6{fill:#fbd66f;}.cls-7{fill:#f2a864;}</style></defs><title>people1</title><g id="Слой_2" data-name="Слой 2"><g id="Layer_1" data-name="Layer 1"><path class="cls-1" d="M59.6,40.07S68.81,45.68,71,47a3.1,3.1,0,0,0,4.13-.62c.67-1,1-2.85-1.16-4.3S58.19,31.34,58.19,31.34Z"/><path class="cls-1" d="M58.9,23s9.58,20.42,10.69,22.68a3.6,3.6,0,0,0,4.26,1.66,3.32,3.32,0,0,0,1.77-4.46c-1-2.39-13.2-22.34-13.2-22.34Z"/><path class="cls-2" d="M61.51,21.17a2.41,2.41,0,0,0,.11-2.65c-.4-.77-1.86-3.25-3.43-3.95l.22,7.13a3.94,3.94,0,0,0,1,.18l.34.51Z"/><rect class="cls-3" x="55.74" y="13.17" width="3.85" height="8.23" transform="matrix(0.84, -0.54, 0.54, 0.84, -0.15, 34.07)"/><path class="cls-2" d="M41,8.89c3.4-8.07,16.12-6.8,17.1,3.49v-.06s0,.12,0,.33a1.94,1.94,0,0,1,0,.24,32.88,32.88,0,0,0,.58,3.87,6,6,0,0,0,.65,1.57c.48.89-.44,1-.65,1-.58,0-1,0-1,0s0,.27,0,.4A10.16,10.16,0,0,1,57.14,22c-.91,2.51-2.75,3-4.7,3.21l1,6.13L52,35.62l-5-4.28a30.68,30.68,0,0,0,.49-5.87c-.1-1-1.87-1.79-2.58-2.28a9.77,9.77,0,0,1-3.49-4.12C39.61,15.05,39.64,12.08,41,8.89Z"/><path class="cls-3" d="M36.6,11.13c-.12-1.07.28-2.29,2.42-3.76,2.39-1.63,1.31-3,3-4.3a5.05,5.05,0,0,1,4.47-1c.91.26,1.28.25,3.45-.48a3.1,3.1,0,0,1,3.93,1.86c.45,1.07.63,1.94,2.88,2.35,2.53.47,2.32,5.73,0,6.09-1.71.26-2.44-2.28-4.18-1s-1.13,4.05-3.52,5c-.55.23-1.52-.05-2-1.21s-2.43.17-2.3,1.6c.08.85.57,3.44,2.46,2.49,1.09-.55,2.47.24,1,1.8-.77.8,0,2.43-.57,3.27h0a1.15,1.15,0,0,1-.27.27c-2.14,1.49-5.67-1-6.34-1.72s-2-.8-2.85-2.36c-.65-1.15-.58-2.32-.54-4.26S36.77,12.88,36.6,11.13Z"/><rect class="cls-2" x="43.34" y="154.04" width="4.1" height="3.37"/><path class="cls-1" d="M47.72,157.41H43v4.46H54.18s.81-1.36-1.78-2.52C50.36,158.42,47.72,157.41,47.72,157.41Z"/><rect class="cls-2" x="60.29" y="154.04" width="4.1" height="3.37"/><path class="cls-1" d="M64.68,157.41H59.93v4.46h11.2s.81-1.36-1.78-2.52C67.31,158.42,64.68,157.41,64.68,157.41Z"/><path class="cls-4" d="M37.64,79.14H64s1.61,29.13,1.61,43.82c0,7.75-.91,32.54-.91,32.54H60c-4-24.28-6.81-49.12-6.81-63L50.83,93c.17,6.12-.55,24.24-1.19,35.64-.7,12.37-1.93,26.88-1.93,26.88H43.05s-2.93-25.42-3.84-32.95C37.5,108.45,37.64,79.14,37.64,79.14Z"/><path class="cls-3" d="M64.07,85c-.06-3-.6-31.71-1.38-41.84-.39-5.12.63-11.77-9.49-12.84,0,0-.58,3.73-1.08,3.73-.71,0-4.07-3.87-4.9-3.73-3.37.56-9.58,2.61-9.58,9.77,0,10.46-.1,41.25,0,44.91Z"/><path class="cls-1" d="M37.27,40.66c0,4.2.37,48.57.37,48.57h2.2c4.08,0,7.38-4.16,7.38-8.6V30.33S37.27,30,37.27,40.66Z"/><path class="cls-1" d="M37.64,60c0-4.13,0-20.62,0-20.62s-4.24,25.81-7,39.69c-.86,4.33,2.8,10.14,6.87,10.14h.11Z"/><path class="cls-1" d="M58.72,31.6c-1.62-.87-5.52-1.27-5.52-1.27L64.07,87.19s4.14.17,3.42-6.19c-1.81-16-1.89-20.09-4.8-43.67C62.5,35.59,62.12,33.42,58.72,31.6Z"/><path class="cls-4" d="M52,34s-1.11-.78-1.51-1.16-2.39-2.49-3.3-2.55c0,0-.8.22-.15,1.19s3.37,4.66,3.76,6.55A5.84,5.84,0,0,0,52,34Z"/><path class="cls-4" d="M52,34s.29-.08.42-.81l.75-2.9.93,4.84s.44,1.73-.52,2.41C53.61,37.58,52.71,34.34,52,34Z"/><path class="cls-5" d="M52,34s.24.07.59.71a11.14,11.14,0,0,1,1,2.83s3.61,15.91,3.33,22.69l-2.23,6.26a36.66,36.66,0,0,0-3.5-5.67s1.48-21.1.44-24.23A8.23,8.23,0,0,0,52,34Z"/><path class="cls-6" d="M37.59,18.51s12.28-10.29,21-10.77c0,0-3.84-11.66-15.45-6.33C31.9,6.59,37.59,18.51,37.59,18.51Z"/><path class="cls-6" d="M39.29,17.15a43,43,0,0,1,4.86-4.06,44.93,44.93,0,0,1,5.42-3.36,26.71,26.71,0,0,1,6-2.32A15.58,15.58,0,0,1,58.86,7a15.36,15.36,0,0,1,3.26.36h0a.58.58,0,0,1-.18,1.15A16.85,16.85,0,0,0,56,9a35.12,35.12,0,0,0-5.74,2.12c-1.88.86-3.71,1.85-5.53,2.87S41.08,16,39.29,17.15Z"/><path class="cls-7" d="M43.17,1.41a13,13,0,0,0-4.39,3.16,12.23,12.23,0,0,1,14,3.72A18.28,18.28,0,0,1,58.3,7C57,4.09,52.79-3,43.17,1.41Z"/><path class="cls-1" d="M31.29,57.11s10.57-17,12.07-19c.8-1.07,1.13-3.35.13-4.3-.84-.81-2.36-2-4.12-.06S24.86,53.39,24.86,53.39Z"/><path class="cls-1" d="M28.24,78.67s2.58-19.09,3.05-21.56c.56-3-.66-3.4-1.79-4.18s-3.55-1.32-4.64.46c-1.35,2.21-1.32,25-1.32,25Z"/><path class="cls-6" d="M55.13,81.25l-27,.25L2.55,73A9.34,9.34,0,0,0,.93,83.34l27-.25,25.61,8.49A9.36,9.36,0,0,0,55.13,81.25Z"/><path class="cls-2" d="M28.24,81.5h1.27c-.3-.92-.64-1-1.17-1.65a2.52,2.52,0,0,1-.64-1.2l-1.87-.11c-.06,1.63,1.34,1.85,1.87,2.32C27.92,81,28.25,81.4,28.24,81.5Z"/><path class="cls-2" d="M24.44,78.49a4.3,4.3,0,0,1-.69,2.11c-.64.86-1.31,2-.88,3.08.53,1.4,3.51,2.13,4.25,1.39,0,0,.9-1.2.78-2,0,0-.3-1.31.34-1.59V81l-1.65-2.42Z"/></g></g></svg>