<svg xmlns="http://www.w3.org/2000/svg" viewBox="0 0 60.97 166.78"><defs><style>.cls-1{fill:#122259;}.cls-2{fill:#804e4f;}.cls-3{fill:#efa0a0;}.cls-4{fill:#fff;}.cls-5{fill:#e56064;}.cls-6{fill:#fbd66f;}</style></defs><title>people5</title><g id="Слой_2" data-name="Слой 2"><g id="Layer_1" data-name="Layer 1"><path class="cls-1" d="M31.24,22.7s13.2-1.33,16.55,4.43c0,0,1.83,3.25,0,13.79S44.47,71.4,44.47,71.4s.61,11-3.33,11.7C41.14,83.1,20.82,45.59,31.24,22.7Z"/><path class="cls-2" d="M33.69,24.45s3.15-1,4.38-6.76c.21-1,.83-3.55,1-5.07.58-5.38-2.56-9.45-9.48-9.45-3.06,0-7.35,1.78-10.07,6.93-3.28,6.23-.74,7.83-3.54,10.72s-3,4.95-.91,7.76,3.47,4.94,2.48,7.17S16.21,44.08,22,41.69,33.69,27.26,33.69,27.26Z"/><rect class="cls-3" x="26.91" y="23.51" width="6.79" height="7.23"/><path class="cls-3" d="M37.47,17.84c-.58,2.52-4.12,7.31-7.31,7.31-2.74,0-7.15-4-7.34-6.6,0,0-.68-4.69-.78-6.26-.29-4.66,4.07-8.45,8.12-8.45h0c4.06,0,8.57,3.79,8.24,8.45A42,42,0,0,1,37.47,17.84Z"/><path class="cls-2" d="M38.13,14.49s-1.54-.16-1.63,1.82c0,0,0-4-1.44-6.33a7.82,7.82,0,0,1-5.77,3.09c-3.71.12-5.71,1.27-6.69,3.87,0,0-1.89-4.24-.57-8.08s6.06-5.42,8.66-5.32S40.87,7.24,38.13,14.49Z"/><path class="cls-3" d="M9.56,57.11a4.06,4.06,0,0,0,2.53,4.62c1.68.85,4.54-1.25,5.19-3C18.28,56,20.07,50,20.07,50c0-1.83,0-20.31-.39-19.73C15.22,36.73,9.56,57.11,9.56,57.11Z"/><path class="cls-4" d="M42.8,31.52a70,70,0,0,0-9.11-3,5.46,5.46,0,0,1-3.39,1.7,4.67,4.67,0,0,1-3.46-1.7s-4.66.43-7.16,1.7l1.15,44.33H39.77l1.89-26.2Z"/><path class="cls-3" d="M46,159.54a44.2,44.2,0,0,1-6.22-6.25s1.9-39.16,2.71-44.25c1.64-10.35,2-24.91-2.75-36.25h-19C17.79,76.87,14,89.41,13.88,94.87c-.14,4.39.72,14.54,0,16.21-2.58,6.48-3.14,42.52-3.14,42.52s-5.43,6.25-6.35,8.19-.6,4.32.72,4.87c1.56.63,4.77-1.33,5.63-2.72a61.31,61.31,0,0,0,4-8.85,4.27,4.27,0,0,0,.05-1.49L31.08,93.15l2.59,60.26s.94,1.82,1.25,2.3a61.18,61.18,0,0,0,6,7.6c1.17,1.14,4.77,2.24,6.12,1.24C48.21,163.7,48.08,161.32,46,159.54Z"/><path class="cls-5" d="M43.69,157.47s-2.52-2-3.32,1c-.4,1.51-6.72-6-6.72-6l0,.92s.94,1.82,1.25,2.3a61.18,61.18,0,0,0,6,7.6c1.17,1.14,4.77,2.24,6.12,1.24,1.14-.85,1-3.19-1.07-5S43.69,157.47,43.69,157.47Z"/><path class="cls-5" d="M13.84,155.3s-1.3,3.8-3.72,2a1.78,1.78,0,0,0-2.55.14,22.5,22.5,0,0,0-3.13,4.34c-.92,2-.6,4.32.72,4.87,1.56.63,4.77-1.33,5.63-2.72a61.31,61.31,0,0,0,4-8.85,4.27,4.27,0,0,0,.05-1.49Z"/><path class="cls-5" d="M29.53,100.57l1.61-7.42-.47,7.42h13.8c.57-9-.4-19.9-4.67-27.78h-19c-2.91,4.08-7.31,16.62-7.48,22.08,0,1.45,0,3.51.1,5.7Z"/><path class="cls-3" d="M42.74,31.47S53.56,43.67,58.81,50l-4.28,4.84L42,43.91Z"/><path class="cls-3" d="M58.81,50s4.37,4.84.68,8.67l-5-3.83Z"/><path class="cls-3" d="M43.42,69.87a34.54,34.54,0,0,0-10.1,2.3.72.72,0,0,0,.26,1.38.75.75,0,0,0,.26,0,26,26,0,0,1,3.53-1.08,17,17,0,0,0-2.52,1.34.71.71,0,0,0-.2,1,.73.73,0,0,0,.6.32.71.71,0,0,0,.39-.12,16.5,16.5,0,0,1,2.82-1.48,8.26,8.26,0,0,0-1.8,1.9.71.71,0,0,0,.58,1.13.69.69,0,0,0,.59-.31,6.59,6.59,0,0,1,1.52-1.58A7.51,7.51,0,0,0,38.52,76a.72.72,0,0,0,.34,1,.82.82,0,0,0,.3.07.72.72,0,0,0,.65-.42,5.37,5.37,0,0,1,.62-1,7.54,7.54,0,0,1,2.64-2,3,3,0,0,0,1.39-1.28C44.82,71.37,43.81,69.84,43.42,69.87Z"/><path class="cls-3" d="M42.48,70a9.08,9.08,0,0,0-2.65-.36l0,.74s1.74-.18,2.21-.3Z"/><path class="cls-3" d="M54.53,54.79,42.65,70a2,2,0,0,0,1.36,3L59.49,58.62Z"/><polygon class="cls-1" points="0.93 30.97 4.88 44.14 11.72 43.18 9.13 30.26 0.93 30.97"/><path class="cls-3" d="M15.89,56.33S4,44.13,4,42.71c0-2.41,1.61-5.78,1.61-7.18,0-2.43-.81-3.08-2.44-3.08S0,33,0,37.77a33.15,33.15,0,0,0,1.72,8c1.67,3.93,8.71,14.81,8.71,14.81a3.34,3.34,0,0,0,4.86.57A3.44,3.44,0,0,0,15.89,56.33Z"/><path class="cls-1" d="M35.68,29.08s3-.19,4.5,1.39c0,0-2.39,22.33.66,29.22,0,0,1,3.52-.41,5.65,0,0-3.5-1.72-4.13-4.4C36.21,60.49,32.5,39.41,35.68,29.08Z"/><path class="cls-1" d="M25.84,28.61s-3.47-1-4.8,1c0,0,2.86,23.24-.59,30.26,0,0-.84,3.59.13,5.1,0,0,4.72-4.25,5.26-7.07C25.84,57.94,28.25,41.84,25.84,28.61Z"/><path class="cls-6" d="M47.71,5.1C48,6.36,39.86,9.46,29.49,12s-19,3.62-19.36,2.36S18,10,28.36,7.45,47.4,3.84,47.71,5.1Z"/><path class="cls-6" d="M40.4,6.9C37.62.8,35.58-1.35,26.73.83s-9.29,5.66-9.28,11.74Z"/><path class="cls-1" d="M17.45,10.74C21,9.32,31.19,5.56,39.52,5.14a19.1,19.1,0,0,0-1-1.78C30.61,4,21.67,7.11,17.61,8.69A18.54,18.54,0,0,0,17.45,10.74Z"/></g></g></svg>