<svg xmlns="http://www.w3.org/2000/svg" viewBox="0 0 52.16 186.99"><defs><style>.cls-1{fill:#efa0a0;}.cls-2{fill:#bbb;}.cls-3{fill:#122259;}.cls-4{fill:#fbd66f;}.cls-5{fill:#fff;}</style></defs><title>people2</title><g id="Слой_2" data-name="Слой 2"><g id="Layer_1" data-name="Layer 1"><rect class="cls-1" x="21.84" y="44.92" width="8.02" height="7.47"/><path class="cls-2" d="M39.7,107,42.37,55.5c0-1.65-1.46-2.71-3-3.33-1.86-.76-1.5-.8-9.51-3.32,0,0-.23,3.3-4.2,3.3-3.07,0-3.84-3.31-3.84-3.31s-6.58,1.77-8.74,3c-1.44.83-3.33,1.49-3.33,2.26L12.43,107Z"/><path class="cls-3" d="M11.88,104.55l1.57,38,4.48,30.31a7.64,7.64,0,0,0,2.79.34c2,0,2.26-.21,2.26-.21l3.65-52.83L29.25,173s.23.21,2.25.21a7.74,7.74,0,0,0,2.8-.34l4.47-30.31,1-38Z"/><path class="cls-1" d="M34.72,40.31c0,1.71-4.38,6.93-8.87,6.93-4.32,0-8.87-4.88-8.87-6.93V33.75a8.87,8.87,0,0,1,8.87-8.88h0a8.87,8.87,0,0,1,8.87,8.88Z"/><path class="cls-1" d="M36.31,37.46c-.33,1-1.19,1.57-1.91,1.33a1.7,1.7,0,0,1-.72-2.22c.33-1,1.19-1.57,1.91-1.33A1.7,1.7,0,0,1,36.31,37.46Z"/><path class="cls-1" d="M15.39,37.46c.33,1,1.18,1.57,1.91,1.33A1.69,1.69,0,0,0,18,36.57c-.33-1-1.19-1.57-1.91-1.33A1.69,1.69,0,0,0,15.39,37.46Z"/><path class="cls-4" d="M17.93,172.87c-.34.67-.6,2.26-1,3.17-1.06,2.37-2.61,3.54-3.94,5.89-.78,1.37-.49,4.67,3.25,5a4.77,4.77,0,0,0,5.48-3.88c.54-3.55.39-6.08,1.25-9.44.34-1.31-1.28-1.86-2.63-1.84A2.53,2.53,0,0,0,17.93,172.87Z"/><path class="cls-4" d="M34.19,172.87c.34.67.6,2.26,1,3.17,1.06,2.37,2.61,3.54,3.94,5.89.78,1.37.49,4.67-3.25,5a4.77,4.77,0,0,1-5.48-3.88c-.54-3.55-.39-6.08-1.25-9.44-.34-1.31,1.28-1.86,2.63-1.84A2.53,2.53,0,0,1,34.19,172.87Z"/><path class="cls-1" d="M6.59,125.46h0c-.06-.07-.12-.15-.21-.24-1-1-1.64-1.84-1.64-2.63,0-.61,0-1.06,0-1.74s.69-2.28,1.17-2.28,1.26,1.57,1.51,1.88a1.49,1.49,0,0,0,.17.18c-.61.15-1.72.75-1,3.11C6.74,124.15,7.52,124.84,6.59,125.46Z"/><path class="cls-1" d="M3.35,114.91a28.08,28.08,0,0,0-.82,7c0,1.58.89,4,3.2,4.61.24.06.88,0,1-.21s.13-.54-.35-1c-1-1-1.64-1.84-1.64-2.63,0-.61,0-1.06,0-1.74s.69-2.28,1.17-2.28,1.26,1.57,1.51,1.88c.79,1,2.09.73,1.4-.37a7.78,7.78,0,0,1-1.23-5.17Z"/><path class="cls-1" d="M0,87.81l3.35,27.1H7.58s1-20.55,1.24-27.1C9,83,9.74,74,10.06,67.7c.49-9.51.86-13,.86-13S0,60.73,0,87.81Z"/><path class="cls-1" d="M41.11,54.22S42.82,59.46,42.86,69c0,3.15.48,18.83.48,18.83l1.24,27.1h4.23l3.35-27.1C52.16,58,41.11,54.22,41.11,54.22Z"/><path class="cls-2" d="M9.74,74s1.34-3.35,1.34-3.71V52.89S3.37,55.68.81,74Z"/><path class="cls-2" d="M42.42,74h8.9C48.69,55.68,40.75,52.89,40.75,52.89s.57,7.61.62,17.14A20.1,20.1,0,0,0,42.42,74Z"/><path class="cls-1" d="M45.56,125.46h0a2,2,0,0,1,.21-.24c1-1,1.63-1.84,1.63-2.63,0-.61,0-1.06,0-1.74s-.69-2.28-1.17-2.28-1.26,1.57-1.52,1.88a1.45,1.45,0,0,1-.16.18c.61.15,1.71.75,1,3.11C45.42,124.15,44.64,124.84,45.56,125.46Z"/><path class="cls-1" d="M48.81,114.91a28.08,28.08,0,0,1,.82,7c0,1.58-.9,4-3.21,4.61-.23.06-.87,0-1-.21s-.14-.54.35-1c1-1,1.63-1.84,1.63-2.63,0-.61,0-1.06,0-1.74s-.69-2.28-1.17-2.28-1.26,1.57-1.52,1.88c-.79,1-2.09.73-1.4-.37a7.82,7.82,0,0,0,1.24-5.17Z"/><path class="cls-3" d="M35,31.05c-.12-1.6-.5-2.84-2.38-3.4,0,0,2.14-3.8-3.36-3.8H23.14c-2,0-6.44,2.14-6.44,9.18,0,.85.15,4.42.15,4.8,0,0-.5,2.78.66,4.52S22.86,47,22.86,47a8.8,8.8,0,0,0,3,1.08,8.7,8.7,0,0,0,3-1.08s4.19-2.56,5.43-4.41.58-4.74.58-4.74C34.81,37.53,35.15,33.23,35,31.05ZM25.83,45c-.84,0-3.18-1.35-4.94-2.75a6,6,0,0,1,.41-.47c.4-.4,2.07-1,4.84-1a7.36,7.36,0,0,1,4,1.23l.33.52C28.77,43.81,26.63,45,25.83,45Zm6.63-4.35a7,7,0,0,1-.61.67l-.37-.58-.12-.09A8.87,8.87,0,0,0,26.14,39c-2.76,0-5.16.62-6.11,1.57-.17.17-.32.36-.47.54-.13-.14-.26-.28-.36-.41a5.93,5.93,0,0,1-1-3.46A6.29,6.29,0,0,1,21,32.07h9.32s3.13,3.12,3.13,5.14A5.85,5.85,0,0,1,32.46,40.67Z"/><rect class="cls-4" x="11.1" y="97.96" width="29.51" height="49.63"/><polygon class="cls-4" points="36.9 55.46 25.85 55.46 14.8 55.46 11.1 97.96 25.85 97.96 40.6 97.96 36.9 55.46"/><path class="cls-4" d="M29.87,48.85a10,10,0,0,1,4,6.61h2s-1.35-5.92-5.92-7.4Z"/><path class="cls-4" d="M21.85,48.85a10,10,0,0,0-4,6.61h-2s1.35-5.92,5.92-7.4Z"/><path class="cls-2" d="M18.32,68.46H32.48s0,12.87-6.12,12.87S17.78,74.09,18.32,68.46Z"/><path class="cls-5" d="M33.1,68.75a.92.92,0,0,1-.91.92H18a.91.91,0,0,1-.91-.92h0a.91.91,0,0,1,.91-.92H32.19a.92.92,0,0,1,.91.92Z"/><path class="cls-5" d="M32.05.55c-4.2,1.94-4.6,3-8.08,2.68S8.86,2.09,14.73,12.41c1.28,7.3,2,19.57,2,19.57s4.15.21,9.06.29A37.62,37.62,0,0,0,35,31.64s1.34-12,2.15-18.72h0s.65-5.47,2.59-8.08S36.24-1.39,32.05.55Z"/><path class="cls-2" d="M34,12.92a82.45,82.45,0,0,1-.27,8.65c-.11,1.43-.21,2.85-.36,4.28s-.29,2.86-.54,4.32a20.08,20.08,0,0,1-.72-4.34,33.54,33.54,0,0,1,0-4.37,35.22,35.22,0,0,1,.6-4.33A21.91,21.91,0,0,1,34,12.92Z"/><path class="cls-2" d="M18.26,12.92a21.19,21.19,0,0,1,1.26,4.21,33.39,33.39,0,0,1,.6,4.33,33.54,33.54,0,0,1,0,4.37,20.08,20.08,0,0,1-.72,4.34c-.25-1.46-.4-2.89-.53-4.32s-.26-2.85-.37-4.28A79.84,79.84,0,0,1,18.26,12.92Z"/><path class="cls-2" d="M26.06,12.92a24.67,24.67,0,0,1,1,4.27,41.57,41.57,0,0,1,.43,4.32,33.44,33.44,0,0,1-.09,4.36,15.93,15.93,0,0,1-.9,4.3l-.36-4.32C26,24.43,26,23,25.87,21.57A57,57,0,0,1,26.06,12.92Z"/><path class="cls-2" d="M30.24,16.32a23.16,23.16,0,0,1,.33,3.59c.05,1.19,0,2.36,0,3.54a61.65,61.65,0,0,1-.69,7.08A13,13,0,0,1,29.05,27a24.06,24.06,0,0,1-.1-3.6,26.71,26.71,0,0,1,.38-3.56A18.22,18.22,0,0,1,30.24,16.32Z"/><path class="cls-2" d="M22.13,16.32a17.55,17.55,0,0,1,.92,3.5,28.47,28.47,0,0,1,.38,3.56,22.8,22.8,0,0,1-.11,3.6,13.41,13.41,0,0,1-.8,3.55,59.53,59.53,0,0,1-.7-7.08c0-1.18-.06-2.35,0-3.54A25.9,25.9,0,0,1,22.13,16.32Z"/></g></g></svg>