<svg xmlns="http://www.w3.org/2000/svg" viewBox="0 0 37.63 172.24"><defs><style>.cls-1{fill:#efa0a0;}.cls-2{fill:#e56064;}.cls-3{fill:#bbb;}.cls-4{fill:#fff;}.cls-5{fill:#122259;}</style></defs><title>people13</title><g id="Слой_2" data-name="Слой 2"><g id="Layer_1" data-name="Layer 1"><path class="cls-1" d="M35.46,51.42l-6.35.88L31,68.9a3.78,3.78,0,0,0,3.91,3,3.17,3.17,0,0,0,2.69-3.58Z"/><path class="cls-1" d="M31,68.61a3.29,3.29,0,0,1,3.48-3.11h0A3.29,3.29,0,0,1,37.57,69L34.88,86.73a1.38,1.38,0,0,1-2.76-.19Z"/><path class="cls-1" d="M34.88,86.73S37.5,90.24,33.61,95c-1,1.22-2.42.67-1.09-2.6.9-2.21.72-3.7-.51-2.78-.49.38-.54.7-1,.65-1.14-.12,1.11-3.72,1.11-3.72Z"/><polygon class="cls-1" points="23.46 32.78 19.29 32.78 15.26 32.78 15.26 22.53 23.46 22.53 23.46 32.78"/><path class="cls-1" d="M15.26,27.69a9.69,9.69,0,0,0,8.2,0V22.53h-8.2Z"/><path class="cls-1" d="M30.92,16.16c-.36,1.09-1.31,1.75-2.12,1.48A1.88,1.88,0,0,1,28,15.17c.37-1.09,1.32-1.75,2.13-1.48A1.87,1.87,0,0,1,30.92,16.16Z"/><path class="cls-1" d="M7.59,16.16c.37,1.09,1.32,1.75,2.13,1.48a1.88,1.88,0,0,0,.8-2.47c-.37-1.09-1.32-1.75-2.13-1.48A1.87,1.87,0,0,0,7.59,16.16Z"/><path class="cls-1" d="M29.25,17.18a9.89,9.89,0,0,1-9.89,9.89h0a9.89,9.89,0,0,1-9.89-9.89V12a9.89,9.89,0,0,1,9.89-9.89h0A9.89,9.89,0,0,1,29.25,12Z"/><path class="cls-2" d="M12,81.54l16,.4.92-29.33,7-1.08c-.63-7-3-11.37-5.44-14.17a14.43,14.43,0,0,0-7-4.58h-8.2S5.77,35.1,2.82,51.08l7.63,1.1Z"/><path class="cls-3" d="M29.7,81.54H9.24l-2.1,24.54v56.23a2.84,2.84,0,0,0,2.24,1.1,2.26,2.26,0,0,0,2.23-1.1s4-21.9,4.81-29.23c.74-6.74,2.7-27,2.7-27s2,23.07,2.75,30.73c.68,6.46,4.89,25.5,4.89,25.5a2.28,2.28,0,0,0,2.24,1.1,2.84,2.84,0,0,0,2.24-1.1V106.08Z"/><path class="cls-4" d="M27.55,34.75a11.71,11.71,0,0,0-2.75-1.51l-.67,13.68H15l-.91-13.71a11.8,11.8,0,0,0-2.58,1.55c0,.16-2.45,20.81-2.18,24.26.3,3.76,2.14,9.17-1,19-4.46,13.84-5.52,57.05-5.52,57.05h34S35.53,91.35,31,77.4C28.57,70,29.53,63.66,29.61,58.71,29.79,48.12,27.53,34.93,27.55,34.75Z"/><path class="cls-5" d="M12.73,160.42c-.23-1.06.2-3.61.47-7H7.14s.26,5.79-.49,7.59-3,5.1-3.55,7.8c-.64,3.12,3.25,4.49,5,2.51.28-.32,3.41-5.88,4.3-7.8A3.89,3.89,0,0,0,12.73,160.42Z"/><path class="cls-5" d="M37.59,167c-.55-3-4.83-4.21-5.79-6-.61-1.18-.56-7.59-.56-7.59H24.86c.35,3.61.92,9.56,1.16,11.32.2,1.51,7.68,4.46,8.09,4.64C36.87,170.52,37.88,168.66,37.59,167Z"/><path class="cls-1" d="M10.39,52.12l-7.08-1L.12,67.86a3.78,3.78,0,0,0,2.29,4.39,3.17,3.17,0,0,0,3.93-2.13Z"/><path class="cls-1" d="M6.69,67.39a3.55,3.55,0,0,0-4.78-1.52h0A3.55,3.55,0,0,0,.4,70.65L8.55,81c.91,1.74,5-1.3,4.09-3Z"/><rect class="cls-5" x="8.11" y="79.22" width="6.57" height="2.44" transform="translate(-48.86 25.94) rotate(-39.81)"/><path class="cls-5" d="M14.26,56.63v7.83a.79.79,0,0,0,.79.8h9.8a.79.79,0,0,0,.78-.8V56.63Z"/><rect class="cls-5" x="13.69" y="55.8" width="12.51" height="2.06"/><path class="cls-5" d="M33.42,53.06c-1.41-1.67-3-7.34-.57-12.71s1.52-12.78.1-17.68a74.31,74.31,0,0,1-2-12.15v0c0-3-1.06-6.21-5.34-8.56C16.1-3.22,11.67,3.44,11.67,3.44,9.44,3.33,8.46,5.34,7.93,8V8c-.13.64-.24,1.32-.32,2a8.56,8.56,0,0,0,.18,2.24,27.24,27.24,0,0,1-1.95,7.55C2.55,27.62,5.18,33.3,8.48,36.78c5.31,5.62,1.46,10.49-.9,14.44S6.94,61,10.77,62.38s9.18-.87,7.86-5.46c-1.19-4.16-1.4-7.15-.18-10.83s-.07-11.34-3.16-13.34l0-6.49S11,24.75,9.69,18.78a4.64,4.64,0,0,1,2.19-4.11,3.17,3.17,0,0,0,1.83-3.57c.58.74,1.58,1.14,3.25.54,3.57-1.27,4.64,3.43,9.22,3.43,1.45,0,2.85,2.85,2.85,2.85-1.38,6.74-5.68,8.34-5.68,8.34v6.49c1.69,1.34,1.73,6.31,1.13,10.43C23.34,50.94,26.36,58.8,29,59.46S36.52,56.73,33.42,53.06Z"/><path class="cls-1" d="M15.27,32.6c0,1.24,1.83,2.37,4,2.37s4-1.13,4-2.37Z"/></g></g></svg>