<svg xmlns="http://www.w3.org/2000/svg" viewBox="0 0 101.63 183.66"><defs><style>.cls-1{fill:#804e4f;}.cls-2{fill:#efa0a0;}.cls-3{fill:#e56064;}.cls-4{fill:#122259;}.cls-5{fill:#fbd66f;}.cls-6{fill:#522f2d;}.cls-7{fill:#3f211d;}.cls-8{fill:#fff;}</style></defs><title>people15</title><g id="Слой_2" data-name="Слой 2"><g id="Layer_1" data-name="Layer 1"><path class="cls-1" d="M49.9,6.55A14.49,14.49,0,0,1,61.67,16.62c3.23,9.38,5.67,9.86,9.67,10.16S81.4,27.46,83,32.2,87.84,40,93.7,39.38s10.74,7.13,6.06,14.84S90.29,56,83.84,61.05s-7,11.06-14,10.46c-9-.79-10.36-5.28-17.39-4.59s-10.62-4.48-8.85-14,3.51-12-.46-16.7-12.58-15.77-7-23.71Z"/><path class="cls-2" d="M41.17,171.5A2.25,2.25,0,0,1,39,172.6a2.81,2.81,0,0,1-2.23-1.1v-56H48.63S46.69,135.69,46,142.4C45.15,149.69,41.17,171.5,41.17,171.5Z"/><path class="cls-2" d="M56.25,171.5a2.26,2.26,0,0,0,2.23,1.1,2.8,2.8,0,0,0,2.22-1.1v-56H48.63s2,23,2.75,30.61C52.05,152.54,56.25,171.5,56.25,171.5Z"/><path class="cls-3" d="M62,84.69c-1.54-4.75-7.15-12.76-7.15-12.76H39.11s-3.73,4.8-6.24,14.23c-2.1,7.85-1,21-1,30.46,0,3,5.76,7.09,17.32,5.52,4.54-.61,11.1-1.38,13.34-4.15C66.57,113,64.31,91.73,62,84.69Z"/><path class="cls-2" d="M51.8,39.38s-.23,9.93-6.48,8.15-1.68-8.15-1.68-8.15L45,29.17h5.71Z"/><path class="cls-2" d="M47.73,35.22a9.66,9.66,0,0,0,3.57-.7l-.56-5.35H45l-.73,5.4A9.51,9.51,0,0,0,47.73,35.22Z"/><path class="cls-2" d="M59.23,22.83c-.36,1.09-1.31,1.75-2.12,1.47a1.87,1.87,0,0,1-.8-2.45c.37-1.09,1.32-1.75,2.12-1.48A1.87,1.87,0,0,1,59.23,22.83Z"/><path class="cls-2" d="M36,22.83c.36,1.09,1.31,1.75,2.12,1.47a1.85,1.85,0,0,0,.79-2.45c-.36-1.09-1.31-1.75-2.11-1.48A1.86,1.86,0,0,0,36,22.83Z"/><path class="cls-2" d="M57.57,23.84a9.84,9.84,0,0,1-9.85,9.85h0a9.85,9.85,0,0,1-9.86-9.85V18.7a9.85,9.85,0,0,1,9.86-9.85h0a9.85,9.85,0,0,1,9.85,9.85Z"/><path class="cls-2" d="M39.06,39.38,21.26,24.94l-.15-.11L7.48,8.25a1.64,1.64,0,0,0-2.73,1.82l12,20.16a3.82,3.82,0,0,0,.87,1.34L37.1,50.08s1-2,2.6-4.89C40.87,43.1,39.06,39.38,39.06,39.38Z"/><path class="cls-2" d="M4.75,10.07S-.23,8.66,0,1.41C.07-.47,1.79-1,2.89,3.06c.76,2.72,2,4,2.48,2.24.19-.7,0-1,.47-1.33C7,3.27,7.48,8.25,7.48,8.25Z"/><path class="cls-1" d="M37.92,25.12a4.65,4.65,0,0,1,2.22-4.06A3.22,3.22,0,0,0,42,17.45c.59.74,1.59,1.15,3.3.55,3.6-1.29,4.69,3.47,9.33,3.47,1.47,0,2.88,2.88,2.88,2.88,0,.27-.12.52-.18.77,0,0,1.57-.68,2.14-8.26.18-2.33-1.09-6.27-5.42-8.64C44.42,2.94,39.93,9.69,39.93,9.69,37.67,9.57,34.47,13,35.6,19A20.59,20.59,0,0,0,37.92,25.12Z"/><path class="cls-3" d="M51.8,39.38s7.06,2.15,8.9,3.51c0,0-2.72,4.06-.54,10.47l-2.39,8.78c-1.11,4.1-2.91,9.79-2.91,9.79H39.11S35.36,65,35.36,60.18c0-2.6.49-11.1.49-11.1a17.53,17.53,0,0,0,3.21-9.7h4.58s-1.8,5.76,3.28,6.69C50.93,46.8,51.8,39.38,51.8,39.38Z"/><path class="cls-4" d="M39.2,71.66c2.67.31,5.25.66,7.84.75a28.7,28.7,0,0,0,7.75-.62.16.16,0,0,1,.14.29,10.32,10.32,0,0,1-3.8,1.68,16.57,16.57,0,0,1-4.15.41,20,20,0,0,1-4.09-.55A15.53,15.53,0,0,1,39,72.2a.28.28,0,0,1-.11-.39.28.28,0,0,1,.28-.15Z"/><path class="cls-4" d="M46.8,134.18a16.22,16.22,0,0,0-5-.73c-3.81,0-5,.73-5,.73v32.46a18.27,18.27,0,0,1-.57,5c-.71,1.71-3.48,6.13-4,8.75-.62,3,3.15,4.34,4.82,2.43.27-.32,3.87-6.9,4.73-8.76a3.79,3.79,0,0,0,.35-3c-.23-1,.91-7.48.91-7.48,1.23-7,2.51-16.58,3-21.14C46.16,140.49,46.47,137.49,46.8,134.18Z"/><path class="cls-4" d="M68.42,179.85c-.52-2.93-5.85-4.69-6.77-6.45-.6-1.14-.95-7.27-.95-7.27V134.18s-.79-.73-5.19-.73a16,16,0,0,0-5.25.73c.43,4.76.85,9.28,1.12,11.94.4,3.8,1.76,11.75,2.86,17.84.59,3.26,1.76,11.41,2,13.12.19,1.46,8.44,4.85,8.84,5C67.73,183.21,68.71,181.41,68.42,179.85Z"/><path class="cls-4" d="M56.55,41l-1.73-.61a40.48,40.48,0,0,1,0,5.61,39.47,39.47,0,0,1-8.7,21.14l3,.73c6.68-8.59,7.44-18.91,7.62-21.92A24.24,24.24,0,0,0,56.55,41Z"/><path class="cls-2" d="M70.7,67.65c1.48,1.51,3.22.74,4.31-.17,1.62-1.35,2.11-3.38.73-5-4.25-4.9-15-19.63-15-19.63-.37-.58-3.15,5.51-1,9.67A82.71,82.71,0,0,0,70.7,67.65Z"/><path class="cls-2" d="M87.64,56.63c1.74-1.18-.41-4.21-2.16-3L71.25,62.18c-1.74,1.18-2.61,2.79-1.43,4.54h0a3.69,3.69,0,0,0,5.19,1Z"/><path class="cls-2" d="M87.54,56.46s5.18.24,7.25-6.72c.54-1.8-.94-2.8-3.26.66-1.58,2.34-3.16,3.15-3.06,1.34,0-.74.33-1,0-1.42-.88-1-2.92,3.55-2.92,3.55Z"/><path class="cls-5" d="M43.27,89.25c2.45-1.84,4.79-1.69,7.49-3.42,5.34-3.43,6.63-10.28,3-15.92S43.39,62.59,38.05,66c-2.59,1.66-3.68,3.84-6.29,5.16-4.18,2.11-9.33.69-13.41,3.31-6.59,4.22-7,12.46-2.56,19.41s11.5,10.4,18.09,6.17C37.83,97.53,39.65,92,43.27,89.25Z"/><rect class="cls-5" x="32.11" y="62.43" width="56.09" height="6.01" transform="translate(-25.83 42.89) rotate(-32.71)"/><path class="cls-5" d="M85.41,54a1.23,1.23,0,0,1-1.65-.5L80.86,49a1.22,1.22,0,0,1,.23-1.7l7.14-4.58a1.22,1.22,0,0,1,1.64.5l2.91,4.53a1.22,1.22,0,0,1-.23,1.7Z"/><rect class="cls-6" x="25.28" y="82.24" width="2.27" height="11.34" transform="matrix(0.84, -0.54, 0.54, 0.84, -43.28, 28.17)"/><path class="cls-7" d="M40.67,84.42a5.45,5.45,0,1,1,1.64-7.53A5.45,5.45,0,0,1,40.67,84.42Z"/><path class="cls-8" d="M84.5,49.28a1,1,0,0,1-1.26-.39h0a.94.94,0,0,1,.17-1.31l4.34-2.78a.94.94,0,0,1,1.26.38h0a1,1,0,0,1-.17,1.31Z"/><path class="cls-8" d="M86,51.62a.92.92,0,0,1-1.23-.33h0A.91.91,0,0,1,85,50l4.34-2.78a.9.9,0,0,1,1.23.33h0a.9.9,0,0,1-.21,1.26Z"/><path class="cls-6" d="M87.32,47a.2.2,0,0,1-.26-.07l-1.8-2.81a.19.19,0,0,1,0-.26l.88-.57a.2.2,0,0,1,.26.07l1.8,2.81a.18.18,0,0,1,0,.26Z"/><path class="cls-1" d="M85.23,44.22a.18.18,0,0,1-.23-.06l-.66-1a.16.16,0,0,1,0-.23L85.82,42a.16.16,0,0,1,.23.05l.67,1a.16.16,0,0,1,0,.23Z"/><path class="cls-6" d="M84.74,48.16a.17.17,0,0,1-.25,0l-1.71-2.66a.2.2,0,0,1,0-.26l.88-.56a.18.18,0,0,1,.26.06l1.71,2.65a.19.19,0,0,1-.06.26Z"/><rect class="cls-1" x="82.12" y="43.84" width="2.04" height="1.56" rx="0.17" ry="0.17" transform="translate(-10.93 51.95) rotate(-32.68)"/><path class="cls-6" d="M88.19,48.3a.21.21,0,0,0,0,.28l1.91,3a.19.19,0,0,0,.26.07l.88-.56a.2.2,0,0,0,0-.28l-1.91-3a.19.19,0,0,0-.27-.08Z"/><rect class="cls-1" x="89.98" y="50.84" width="2.04" height="1.57" rx="0.17" ry="0.17" transform="translate(-13.47 57.27) rotate(-32.66)"/><path class="cls-6" d="M86.11,50.3a.18.18,0,0,0-.06.25l1.71,2.66a.18.18,0,0,0,.25.06l.88-.57a.18.18,0,0,0,.06-.25l-1.71-2.66a.18.18,0,0,0-.25-.06Z"/><rect class="cls-1" x="87.64" y="52.44" width="2.04" height="1.56" rx="0.17" ry="0.17" transform="translate(-14.7 56.45) rotate(-32.76)"/><rect class="cls-8" x="19.68" y="66.06" width="70.28" height="0.42" transform="translate(-26.97 39.67) rotate(-32.38)"/><polygon class="cls-8" points="26.2 86.63 25.98 86.28 87.44 46.26 87.67 46.61 26.2 86.63"/><rect class="cls-8" x="22.13" y="69.88" width="70.17" height="0.41" transform="translate(-28.81 42.05) rotate(-32.72)"/><rect class="cls-8" x="21.23" y="67.92" width="73.26" height="0.41" transform="translate(-27.73 42.38) rotate(-32.92)"/></g></g></svg>