<svg xmlns="http://www.w3.org/2000/svg" viewBox="0 0 63.06 172.03"><defs><style>.cls-1{fill:#00002e;}.cls-2{fill:#ed9495;}.cls-3{fill:#efa0a0;}.cls-4{fill:#bbb;}.cls-5{fill:#122259;}.cls-6{fill:#fff;}.cls-7{fill:#e56064;}</style></defs><title>people11</title><g id="Слой_2" data-name="Слой 2"><g id="Layer_1" data-name="Layer 1"><path class="cls-1" d="M38.91,160s-.76,1-.76,4.25c0,1.5,1.93,1.85,3.69,1.85,2.34,0,1.7,6,8.83,6,4,0,3.88-3.41,1.95-5.22-3.79-3.53-5.38-3.21-7.84-6.84Z"/><path class="cls-1" d="M27.39,160s-.76,1-.76,4.25c0,1.5,1.94,1.85,3.7,1.85,2.33,0,1.7,6,8.83,6,4,0,3.88-3.41,2-5.22-3.79-3.53-5.38-3.21-7.84-6.84Z"/><path class="cls-2" d="M60,100.21h0c0-.07.09-.15.15-.24.7-1,1.24-1.77,1.15-2.44-.08-.52-.12-.9-.2-1.49s-.94-1.86-1.35-1.8-.89,1.5-1.06,1.8l-.12.17c.54.05,1.56.42,1.21,2.53C59.71,99.11,59.13,99.8,60,100.21Z"/><path class="cls-3" d="M61.47,90.81A24.43,24.43,0,0,1,63,96.65,4.07,4.07,0,0,1,60.85,101c-.2.08-.75.11-.87-.06s-.18-.44.16-.94c.7-1,1.18-1.76,1.08-2.44L61,96c-.08-.55-.87-1.86-1.28-1.8s-.89,1.5-1.06,1.8c-.55.92-1.69.87-1.24-.15a6.7,6.7,0,0,0,.42-4.56Z"/><path class="cls-4" d="M51.27,94.46c-.08-3.53-.7-37-1.6-48.8-.47-6,.73-13.68-11.07-14.93,0,0-1.6-.09-3.32-.12a24.39,24.39,0,0,0-3.66.12c-3.94.66-11.18,3-11.18,11.35,0,12.2-.12,48.11,0,52.38Z"/><path class="cls-3" d="M29.67,6.52c4.94-7.73,17.85-4.16,17,6.65V13.1s0,.13,0,.36q0,.1,0,.24a34.05,34.05,0,0,0-.09,4.1A6.49,6.49,0,0,0,47,19.54c.34,1-.63,1-.85.95-.6-.12-1.06-.23-1.06-.23s-.08.29-.12.42A10.28,10.28,0,0,1,44,22.93c-1.38,2.44-3.36,2.6-5.41,2.49v5.31l-3.23,3.61-3.75-3.61,1.07-5.65S30.9,22.65,30.26,22c-1.11-1.09-1.35-2.64-1.94-4.91C27.15,12.64,27.7,9.58,29.67,6.52Z"/><path class="cls-5" d="M24.38,8c.07-1.12,1.05-2.21,3.52-3.35,2.76-1.26,1.89-2.82,3.91-3.9a5.29,5.29,0,0,1,4.8-.23c.89.42,1.27.48,3.65.11A3.25,3.25,0,0,1,44,3.2c.27,1.18.3,2.11,2.55,2.94,2.54.93,1.38,6.33-1.1,6.29-1.82,0-2.11-2.79-4.13-1.81s-1.89,4-4.52,4.51c-.61.13-1.56-.33-1.91-1.61s-2.53-.27-2.65,1.23c-.07.89,0,3.66,2.09,3,1.23-.38,2.52.68.69,2-.94.69-.47,2.51-1.17,3.28h0a.94.94,0,0,1-.32.23c-2.48,1.16-5.68-2-6.24-2.9s-1.89-1.18-2.53-2.94c-.46-1.31-.18-2.51.21-4.5S24.25,9.79,24.38,8Z"/><polyline class="cls-1" points="48.67 87.62 48.75 84.53 24.73 84.53 24.86 87.62"/><rect class="cls-6" x="33.48" y="84.56" width="6.12" height="3.05"/><path class="cls-7" d="M22.19,35.48c-7.77,5.72-21,26.78-21,26.78l8.24,4.52s6.62-8.1,11-12.59Z"/><path class="cls-6" d="M31.62,30.68s-1.64.87-1.64,4a4.07,4.07,0,0,1,5.39-.34Z"/><path class="cls-6" d="M38.6,30.64s2.14.69,2.14,3.82c0,0-2.15-2.2-5.37-.12Z"/><path class="cls-7" d="M46.27,32.92S59.09,37.09,62.79,64.5l-8.53.3a98.4,98.4,0,0,1-3-12.44C49.08,39,46.27,32.92,46.27,32.92Z"/><polygon class="cls-7" points="57.07 91.85 62.78 91.03 62.77 64.18 54.19 64.34 57.07 91.85"/><path class="cls-5" d="M21.14,87.54s1,30,1.65,40c.69,11.27,4.71,32.6,4.71,32.6a8.08,8.08,0,0,0,2.94.36,13,13,0,0,0,2.94-.22L36.65,104l2.28,56.38a19.41,19.41,0,0,0,2.85.13,8.08,8.08,0,0,0,2.94-.36l4.71-32.6,1.08-40Z"/><path class="cls-7" d="M20.38,42.2c0,4.5.14,55.18.14,55.18s9.45.32,10.19-4.33c2.56-16,.91-62.37.91-62.37S20.38,30.73,20.38,42.2Z"/><path class="cls-7" d="M45,32.17c-1.9-1-6.44-1.49-6.44-1.49s-1.08,51.58,7.68,65.16c2.48,3.83,7.44,1.39,7.44,1.39-.64-19.41-.65-30.87-4.05-58.38C49.44,36.81,49,34.28,45,32.17Z"/><path class="cls-7" d="M26.17,94.07S11.33,70,9.46,66.78C6.15,61,3.18,61.68,1.22,62.26c0,0-2.48,2.29-.37,7.25C2.37,73.07,22.6,97.38,22.6,97.38Z"/><path class="cls-3" d="M25.75,94.46A6.59,6.59,0,0,1,28,96.12l-3.28,2.66a3.56,3.56,0,0,1-1.94-1.55Z"/><polygon class="cls-1" points="29.83 96.36 23.93 101.82 22.36 100.11 28.26 94.65 29.83 96.36"/><polygon class="cls-1" points="48.09 101.09 42.53 95.29 44.21 93.68 49.77 99.49 48.09 101.09"/></g></g></svg>