<svg xmlns="http://www.w3.org/2000/svg" viewBox="0 0 54.19 166.97"><defs><style>.cls-1{fill:#122259;}.cls-2{fill:#d7d9dd;}.cls-3{fill:#efa0a0;}.cls-4{fill:#804e4f;}.cls-5{fill:#fbd66f;}.cls-6{fill:#fff;}</style></defs><title>people3</title><g id="Слой_2" data-name="Слой 2"><g id="Layer_1" data-name="Layer 1"><path d="M30.65,152.94s-.82,1.06-.82,4.55c0,1.61,2.08,2,4,2,2.5,0,1.83,6.39,9.46,6.39,4.32,0,4.17-3.65,2.09-5.59-4.06-3.78-5.76-3.45-8.4-7.33Z"/><path class="cls-1" d="M13.29,79.79c-.77,5.66-3.72,25.15-3.9,31.05-.14,4.74.45,12.39-.27,14.19-5.12,12.83-4,28.05-4,28.05a4.56,4.56,0,0,0,2,.4,16.83,16.83,0,0,1,3.41,0l17.37-53.05,2.61,52.83s.24.21,2.26.21a34.82,34.82,0,0,0,4.34-.34s1.46-21,2.93-30.32c1.77-11.18,1.47-33.37,1.74-43Z"/><path d="M41.52,96.74c.07-4.87.1-9.37.19-12.81H13.29c-.37,2.73-1.25,7.72-2.08,12.81Z"/><path d="M5.35,152.72c-.34.67-.61,2.28-1,3.2-1.07,2.38-2.63,3.56-4,5.94-.78,1.38-.48,4.71,3.28,5.07A4.8,4.8,0,0,0,9.16,163c.55-3.57.4-6.13,1.27-9.52.34-1.32-1.3-1.88-2.65-1.85A2.52,2.52,0,0,0,5.35,152.72Z"/><polygon class="cls-2" points="31.05 29.22 35.91 30.61 27.46 51.07 18.18 30.65 23.04 29.22 31.05 29.22"/><path class="cls-1" d="M43.89,93.81,45,36.29c0-1.77-1.52-2.9-3.12-3.57C39.26,31.62,33.65,30,33.65,30L27.46,51.07l-7-21a38.08,38.08,0,0,0-7.29,2.61c-1.5.88-3.3,2.08-3.3,2.91V93.81H25.85l1.61-9.88,4,9.88Z"/><path class="cls-3" d="M31.47,29.22s-3.76,5-4,5-4-5-4-5V25.3h8Z"/><path class="cls-3" d="M36.34,20.68c0,1.71-4.38,6.94-8.88,6.94-4.32,0-8.87-4.89-8.87-6.94V14.12a8.87,8.87,0,0,1,8.87-8.87h0a8.88,8.88,0,0,1,8.88,8.87Z"/><path class="cls-3" d="M37.92,17.83c-.33,1-1.18,1.57-1.9,1.33A1.68,1.68,0,0,1,35.3,17c.33-1,1.18-1.58,1.91-1.33A1.68,1.68,0,0,1,37.92,17.83Z"/><path class="cls-3" d="M17,17.83c.33,1,1.19,1.57,1.91,1.33A1.68,1.68,0,0,0,19.63,17c-.33-1-1.18-1.58-1.9-1.33A1.68,1.68,0,0,0,17,17.83Z"/><path class="cls-4" d="M19.66,19c.09-.92-.52-7.68,7.64-7.68,8.36,0,8,6.88,7.81,7.68h.76l.47-2.06s2.26-5.7-4.78-11.28a2.47,2.47,0,0,1-1.17-2.8,4.41,4.41,0,0,0-2.93,2A5.63,5.63,0,0,1,29,1.29s-7,.38-10.37,9.18A11.52,11.52,0,0,0,18.9,19Z"/><path class="cls-5" d="M34.72,58.36a1.14,1.14,0,1,1-1.13-1.13A1.14,1.14,0,0,1,34.72,58.36Z"/><path class="cls-5" d="M34.72,64.68a1.14,1.14,0,1,1-1.13-1.14A1.14,1.14,0,0,1,34.72,64.68Z"/><path class="cls-5" d="M34.72,71a1.14,1.14,0,1,1-1.13-1.13A1.13,1.13,0,0,1,34.72,71Z"/><path class="cls-5" d="M23.78,58.36a1.14,1.14,0,1,1-1.14-1.13A1.14,1.14,0,0,1,23.78,58.36Z"/><path class="cls-5" d="M23.78,64.68a1.14,1.14,0,1,1-1.14-1.14A1.14,1.14,0,0,1,23.78,64.68Z"/><path class="cls-5" d="M23.78,71a1.14,1.14,0,1,1-1.14-1.13A1.13,1.13,0,0,1,23.78,71Z"/><polygon points="33.66 29.95 37.63 31.2 34.06 43.22 27.46 51.07 33.66 29.95"/><polygon points="21.31 29.73 17.07 31.05 20.64 43.22 27.46 51.07 21.31 29.73"/><path class="cls-6" d="M27.45,34.19a32.42,32.42,0,0,1,1.71-2.87,10,10,0,0,1,2.23-2.11,11.89,11.89,0,0,1,1.36.16,11.86,11.86,0,0,1,1.32.57,25.78,25.78,0,0,1,0,3.54S30.33,31.32,27.45,34.19Z"/><path class="cls-6" d="M27.41,34.19a32.42,32.42,0,0,0-1.71-2.87,10,10,0,0,0-2.23-2.11,11.89,11.89,0,0,0-1.36.16,11.86,11.86,0,0,0-1.32.57,28.21,28.21,0,0,0,0,3.7S24.54,31.32,27.41,34.19Z"/><rect class="cls-5" x="34.75" y="45.9" width="6.07" height="1.7"/><path class="cls-1" d="M43.45,33.5A22.89,22.89,0,0,1,53.84,51.07c1.43,19.92-2,42.36-2,42.36H44.62l.91-30.69-.71-10.09Z"/><path class="cls-3" d="M50.91,93.45s3,7.35-3.63,10.79c-.93.49-2.69.49-2-2.72s1.07-4.75.09-4.13-1.62,1.33-1.33-.12a22.8,22.8,0,0,1,1.41-3.84Z"/><path class="cls-5" d="M52.25,90.57H44.7l-.05,1.58H52C52.1,91.72,52.17,91.2,52.25,90.57Z"/><path class="cls-5" d="M52.55,88.06H44.78l-.05,1.57h7.63C52.42,89.15,52.49,88.61,52.55,88.06Z"/><path class="cls-5" d="M52.83,85.54h-8l-.05,1.58h7.86C52.72,86.62,52.77,86.09,52.83,85.54Z"/><path class="cls-1" d="M11.05,34.24S2,38.93,1.17,51.07C-.27,71,2.5,93.43,2.5,93.43H9.73L8.82,62.74,10,52.65Z"/><path class="cls-3" d="M3.44,93.45s-3,7.35,3.63,10.79c.93.49,2.7.49,2-2.72S8,96.77,9,97.39s1.62,1.33,1.33-.12A22.8,22.8,0,0,0,8.9,93.43Z"/><path class="cls-5" d="M2.11,90.57H9.65l0,1.58H2.32C2.26,91.72,2.19,91.2,2.11,90.57Z"/><path class="cls-5" d="M1.8,88.06H9.57l0,1.57H2C1.93,89.15,1.86,88.61,1.8,88.06Z"/><path class="cls-5" d="M1.52,85.54h8l.05,1.58H1.69C1.64,86.62,1.58,86.09,1.52,85.54Z"/><polygon class="cls-1" points="25.09 32.83 26.55 35.65 28.39 35.65 29.85 32.83 25.09 32.83"/><polygon class="cls-1" points="28.39 35.65 27.46 35.65 26.54 35.65 25.09 43.37 27.46 51.07 29.85 43.37 28.39 35.65"/><polygon class="cls-5" points="38.36 34.22 37.38 33.93 38.12 31.36 39.1 31.7 38.36 34.22"/><polygon class="cls-5" points="40.08 34.82 39.1 34.52 39.87 31.95 40.83 32.31 40.08 34.82"/><polygon class="cls-5" points="41.8 35.42 40.82 35.12 41.57 32.59 42.54 32.94 41.8 35.42"/><polygon class="cls-5" points="15.69 34.22 16.68 33.93 15.99 31.45 15 31.84 15.69 34.22"/><polygon class="cls-5" points="13.97 34.82 14.96 34.52 14.26 32.18 13.33 32.65 13.97 34.82"/><polygon class="cls-5" points="12.25 35.42 13.24 35.12 12.62 33.07 11.65 33.71 12.25 35.42"/><path class="cls-1" d="M30.52.52c-1.55-.54-5-.83-6.61,0C20.77,2.09,13.45,8.11,13.45,8.11a36.49,36.49,0,0,0,4.67,5.61c4.08-5.36,14.37-5.29,18.2,0A37.11,37.11,0,0,0,41,8.11S33.83,1.67,30.52.52Z"/><path d="M27.22,9.76A11.57,11.57,0,0,0,18,13.61l3.18,2.1a6.58,6.58,0,0,0,3.56,1h5a6.58,6.58,0,0,0,3.56-1l3.18-2.1A11.56,11.56,0,0,0,27.22,9.76Z"/><path class="cls-5" d="M17.93,13.61a9.16,9.16,0,0,1,4-3.27,13.42,13.42,0,0,1,10.55-.06,8.79,8.79,0,0,1,4,3.3.24.24,0,0,1-.09.34.27.27,0,0,1-.35-.06,9.73,9.73,0,0,0-4-2.76,13.11,13.11,0,0,0-4.89-.87,13.35,13.35,0,0,0-4.9.86,10.3,10.3,0,0,0-4.06,2.74.21.21,0,0,1-.28,0,.19.19,0,0,1,0-.24Z"/><path class="cls-5" d="M28,5.64l-.8.67-.81-.67H23S23.8,7,24.43,7H30c.63,0,1.41-1.34,1.41-1.34Z"/></g></g></svg>