<svg xmlns="http://www.w3.org/2000/svg" viewBox="0 0 57.54 168.57"><defs><style>.cls-1{fill:#fff;}.cls-2{fill:#122259;}.cls-3{fill:#efa0a0;}.cls-4{fill:#ed9495;}.cls-5{fill:#fbd66f;}.cls-6{fill:#f4b15b;}.cls-7{fill:#f1a34b;}</style></defs><title>people8</title><g id="Слой_2" data-name="Слой 2"><g id="Layer_1" data-name="Layer 1"><path class="cls-1" d="M43.94,82.69l3.43-49.75c0-1.7-1.58-2.79-3.24-3.42-2.72-1.06-11.21-3.43-11.21-3.43H24.63s-7.84,2.15-10.18,3.43c-1.55.84-3.4,2-3.4,2.79l3.5,50.38Z"/><path class="cls-2" d="M32.5,154.06s-.84,1.09-.84,4.71c0,1.66,2.14,2,4.09,2,2.59,0,1.89,6.61,9.79,6.61,4.46,0,4.3-3.78,2.16-5.78-4.2-3.92-6-3.57-8.69-7.58Z"/><path class="cls-2" d="M6.33,153.83c-.35.7-.62,2.35-1,3.31-1.1,2.46-2.72,3.69-4.11,6.14-.82,1.43-.51,4.87,3.39,5.25a5,5,0,0,0,5.72-4.06c.56-3.69.41-6.34,1.31-9.84.35-1.37-1.35-1.94-2.75-1.92C7.75,152.74,6.76,153,6.33,153.83Z"/><path class="cls-3" d="M32.92,26.1a3.85,3.85,0,0,1-4.14,3.82,3.85,3.85,0,0,1-4.15-3.82V22h8.29Z"/><path class="cls-3" d="M38,17.27c0,1.77-4.53,7.17-9.17,7.17-4.48,0-9.18-5.05-9.18-7.17V10.48A9.18,9.18,0,0,1,28.78,1.3h0A9.18,9.18,0,0,1,38,10.48Z"/><path class="cls-3" d="M39.6,14.32c-.35,1-1.23,1.63-2,1.38a1.75,1.75,0,0,1-.74-2.3c.34-1,1.22-1.62,2-1.37A1.76,1.76,0,0,1,39.6,14.32Z"/><path class="cls-3" d="M18,14.32c.34,1,1.22,1.63,2,1.38a1.75,1.75,0,0,0,.75-2.3,1.74,1.74,0,0,0-2-1.37A1.75,1.75,0,0,0,18,14.32Z"/><path class="cls-2" d="M20.7,15.53c.1-.95-.54-7.95,7.9-7.95,8.65,0,8.24,7.12,8.09,8h.78L38,13.4s2.22-8.57-4.3-11.8c-.51-.26-10.5-4-14,5.11a12,12,0,0,0,.24,8.82Z"/><path class="cls-1" d="M11.76,31.51S0,40.17,0,69.06H10.29s2.35-9.57,2.09-17.38C12,39.17,11.76,31.51,11.76,31.51Z"/><polygon class="cls-1" points="9.87 98.39 2.95 98.39 0 68.83 10.35 68.83 9.87 98.39"/><path class="cls-4" d="M7.63,109.31h0c-.06-.08-.12-.16-.21-.26-1-1-1.8-1.88-1.8-2.7,0-.63,0-1.09,0-1.8s.83-2.38,1.32-2.38,1.31,1.63,1.57,2l.17.18c-.64.15-1.78.77-1,3.22C7.78,108,8.58,108.67,7.63,109.31Z"/><path class="cls-3" d="M4.27,98.39a29,29,0,0,0-.85,7.21c0,1.63.93,4.14,3.32,4.76.24.06.91,0,1-.22s.15-.56-.35-1.09c-1-1-1.7-1.9-1.7-2.71,0-.64,0-1.1,0-1.81s.72-2.36,1.21-2.36,1.31,1.63,1.57,2c.81,1,2.16.75,1.44-.39a8,8,0,0,1-1.27-5.35Z"/><path class="cls-1" d="M45.78,30.47S57.54,39.13,57.54,68H47.25s-2.35-9.57-2.09-17.38C45.56,38.13,45.78,30.47,45.78,30.47Z"/><polygon class="cls-1" points="47.67 97.35 54.59 97.35 57.54 68.02 47.14 67.56 47.67 97.35"/><path class="cls-4" d="M49.91,108.27h0c.06-.08.12-.16.21-.26,1-1.05,1.78-1.89,1.78-2.71,0-.64,0-1.09,0-1.81s-.8-2.35-1.29-2.35-1.3,1.62-1.57,1.94a1.54,1.54,0,0,1-.17.19c.64.15,1.78.77,1,3.22C49.76,106.92,49,107.63,49.91,108.27Z"/><path class="cls-3" d="M53.27,97.35a29,29,0,0,1,.85,7.2c0,1.64-.93,4.15-3.32,4.77-.25.06-.91,0-1-.22s-.15-.56.35-1.09c1-1.05,1.7-1.9,1.7-2.71,0-.64,0-1.1,0-1.81s-.72-2.35-1.21-2.35-1.3,1.62-1.57,1.94c-.81,1-2.16.76-1.44-.38a8.1,8.1,0,0,0,1.27-5.35Z"/><path class="cls-5" d="M44.16,29.48c-.4-.16-1.48-.51-2.66-.87L40.36,42.92H17.79L16.65,28.55a17.68,17.68,0,0,0-2.17.93c-1.55.85-3.41,2-3.41,2.79l3.5,50.38c-.79,5.86-3.84,21.72-4,27.84-.15,4.89.47,12.8-.28,14.66-5.3,13.27-4.17,29-4.17,29a4.6,4.6,0,0,0,2,.4,17.36,17.36,0,0,1,3.52,0l18-54.86,2.71,54.63s.24.21,2.33.21a37.48,37.48,0,0,0,4.49-.34s1.51-21.72,3-31.36C44,111.3,43.69,92.64,44,82.65L47.39,32.9C47.39,31.2,45.81,30.12,44.16,29.48Z"/><polygon class="cls-6" points="43.98 82.53 44.19 79.49 14.36 79.49 14.56 82.53 43.98 82.53"/><path class="cls-6" d="M21.11,49.63V61.18a1.17,1.17,0,0,0,1.16,1.19H36.74a1.17,1.17,0,0,0,1.16-1.19V49.63Z"/><rect class="cls-7" x="20.27" y="48.39" width="18.47" height="3.05"/><path class="cls-5" d="M38.39,9.9c0-5.13-3.21-9.9-9.61-9.9-7.82,0-9.94,5-10,10.08Z"/><path class="cls-6" d="M31.8,10A7.49,7.49,0,0,1,32.15.51,10.7,10.7,0,0,0,28.78,0,13.07,13.07,0,0,0,25,.49a7.44,7.44,0,0,1,.44,9.59Z"/><path class="cls-6" d="M38.45,10c-.5-1.79-4.86-1.68-9.71-1.68s-9.52.15-10,1.86Z"/><rect class="cls-7" x="38.53" y="80.14" width="2.48" height="7.2"/><path class="cls-1" d="M40.44,81.5a.66.66,0,0,1-.65.66.67.67,0,0,1-.66-.66.66.66,0,0,1,.66-.65A.65.65,0,0,1,40.44,81.5Z"/><rect class="cls-7" x="30.51" y="80.14" width="2.48" height="7.2"/><path class="cls-1" d="M32.42,81.5a.66.66,0,1,1-.65-.65A.65.65,0,0,1,32.42,81.5Z"/><path class="cls-6" d="M29.17,85.57v9.87a.86.86,0,0,0,.93.76H41.38a.85.85,0,0,0,.93-.76V85.57Z"/></g></g></svg>