<svg xmlns="http://www.w3.org/2000/svg" viewBox="0 0 80.2 168.8"><defs><style>.cls-1{fill:#efa0a0;}.cls-2{fill:#f2a54e;}.cls-3{fill:#fbd66f;}.cls-4{fill:#122259;}.cls-5{fill:#f7c36a;}.cls-6{fill:#f6be69;}.cls-7{fill:#e56064;}.cls-8{fill:#bbb;}</style></defs><title>people4</title><g id="Слой_2" data-name="Слой 2"><g id="Layer_1" data-name="Layer 1"><polygon class="cls-1" points="46.56 28.53 41.77 32.79 37.14 28.53 37.14 24.6 46.56 24.6 46.56 28.53"/><path class="cls-2" d="M56.26,86.89H25.58l3.48,69a12.3,12.3,0,0,0,4.83,1.46A6.32,6.32,0,0,0,38.12,156l3-59.3L46.86,124h0l-2.4,31.22s.44,1.72,3.58,1.72a19.72,19.72,0,0,0,4.71-.62L60.09,124h0Z"/><path class="cls-3" d="M58.65,91,56.94,38.07c0-1.73-1.52-2.83-3.12-3.48-2.63-1.06-7.2-3-7.2-3l-.09-4.11-4.59,3.39-4.79-2.76V32c-3.34.81-7.42,1.9-8.69,2.62-1.49.86-3.29,2-3.29,2.84L23.83,91s12.63,2.89,17.32,2.89S58.65,91,58.65,91Z"/><path class="cls-1" d="M50.72,20.56c0,1.71-4.38,6.93-8.87,6.93-4.33,0-8.87-4.88-8.87-6.93V14a8.86,8.86,0,0,1,8.87-8.86h0A8.86,8.86,0,0,1,50.72,14Z"/><path class="cls-1" d="M52.31,17.71c-.33,1-1.19,1.57-1.91,1.33a1.69,1.69,0,0,1-.72-2.22c.33-1,1.18-1.57,1.91-1.32A1.69,1.69,0,0,1,52.31,17.71Z"/><path class="cls-1" d="M31.39,17.71c.33,1,1.18,1.57,1.91,1.33A1.71,1.71,0,0,0,34,16.82c-.33-1-1.18-1.57-1.91-1.32A1.67,1.67,0,0,0,31.39,17.71Z"/><path class="cls-4" d="M33,17.27s1-3.43,3.06-5l1.27-1.9s1.38-.37,4.54.9,4,3.2,7.06,2.51a28.84,28.84,0,0,1,1.54,3.66,27.84,27.84,0,0,0,.9-4.4c.23-2.13.57-7.64-6.09-9.38C38.32,1.87,35.35,6.3,35.35,6.3s-.63-.71-2.37,2c-1.27,2-1.34,5.26,0,9.16"/><path class="cls-4" d="M50.77,17.83a6.69,6.69,0,0,0-1.43-3.11s.58,4-.94,6a8.65,8.65,0,0,1-.61.67l-.38-.58-.11-.09A9,9,0,0,0,42.05,19c-2.78,0-5.19.62-6.15,1.58a6.06,6.06,0,0,0-.47.54c-.13-.14-.26-.28-.36-.41-1.51-1.94-.93-6.45-.93-6.45a9.78,9.78,0,0,0-1.44,3.6s-.49,2.79.67,4.53S38.75,27,38.75,27a8.79,8.79,0,0,0,3,1.08,8.79,8.79,0,0,0,3-1.08s4.22-2.58,5.46-4.44S50.77,17.83,50.77,17.83Zm-9,7.23c-.85,0-3.21-1.36-5-2.76a3.77,3.77,0,0,1,.4-.48c.41-.41,2.09-1.05,4.88-1.05a7.3,7.3,0,0,1,4,1.24l.34.51C44.69,23.84,42.53,25.06,41.74,25.06Z"/><path class="cls-4" d="M38.12,156a35.79,35.79,0,0,0-.21,4.48c0,1.38-2.69,1.93-4.31,1.93-2.15,0-3,6.38-9.6,6.38-3.71,0-4.43-2.59-2.65-4.26a71,71,0,0,0,7.71-8.66l-1.38-11.07H39.56Z"/><path class="cls-4" d="M44.48,155.25v5.47c0,1.38,1.78,1.7,3.4,1.7,2.15,0,3,6.38,9.6,6.38,3.71,0,4.43-2.59,2.65-4.26-3.49-3.25-5.13-5.91-7.36-8.19l2.36-8.79L45,144.81Z"/><path class="cls-2" d="M41.15,93.87c-.29-5.25-.42-10.51-.53-15.76s-.11-10.5-.11-15.75.08-10.5.19-15.75.27-10.5.48-15.75v-.43l.3-.18c.81-.49,1.63-1,2.47-1.45s1.69-.91,2.57-1.32c-.65.72-1.33,1.4-2,2.07s-1.4,1.3-2.12,1.93l.31-.6q.12,7.88.08,15.75c0,5.26-.1,10.5-.21,15.75s-.28,10.5-.5,15.75S41.57,88.63,41.15,93.87Z"/><path class="cls-3" d="M55.45,35.47l-5.24,9.35L72.55,60.3a5,5,0,0,0,6.56-.2,4.18,4.18,0,0,0-.28-5.92Z"/><path class="cls-3" d="M25.36,36.93l-.6,17.27L14.18,66.84c-1,2.09-3.88,2.23-6,1.21a3.79,3.79,0,0,1-1.81-5.29Z"/><path class="cls-5" d="M73.86,53.77a4.18,4.18,0,0,1,5.73,1.48h0a5.28,5.28,0,0,1-1.06,6.2L56.74,72.62c-.42.28-3.61-4.6-3.15-5.24Z"/><path class="cls-6" d="M12.93,69A4.19,4.19,0,0,1,7,68.59H7A5.28,5.28,0,0,1,7,62.3l19.19-16c.36-.36,4.64,5.07,4.3,5.78Z"/><path class="cls-7" d="M56.81,75.19a1.59,1.59,0,0,1-.13,2.24h0a1.59,1.59,0,0,1-2.25-.13L14,30.54a1.59,1.59,0,0,1,.13-2.25h0a1.59,1.59,0,0,1,2.24.13Z"/><path class="cls-8" d="M22.7,29.91l-8.89,3.17L0,38s1.23,7,4.51,10.72,10.12,5.71,10.12,5.71l6.5-13.14,4.18-8.47Z"/><path class="cls-4" d="M7.71,45.88C5.4,43.29,4.11,39,3.55,36.74L0,38s1.23,7,4.51,10.72,10.12,5.71,10.12,5.71l1.67-3.38C14.08,50.22,10,48.42,7.71,45.88Z"/><path class="cls-1" d="M29.76,50.41s4-.67,4.38-2.15S32,41.48,29,43l.8.92s-.4,2.6-2.48,2c0,0-.4-.07-.74.54A49.6,49.6,0,0,1,29.76,50.41Z"/><path class="cls-1" d="M56,72s-4.54,4.82-8.27,3.29c-1.11-.45-2.08-1.84.88-4.71,0,0,2.7-.15,2.9-1.52a1.69,1.69,0,0,1,2.43-.34S54.86,70.38,56,72Z"/><path class="cls-3" d="M29.65,10.67c4.11.46,8.19.94,12.26,1.09q3.06.13,6.1,0a40.88,40.88,0,0,0,6.07-.8.29.29,0,0,1,.2.54,19.24,19.24,0,0,1-6.06,2.06,31.74,31.74,0,0,1-6.38.49,40.53,40.53,0,0,1-6.33-.63,31.52,31.52,0,0,1-6.14-1.66.55.55,0,0,1,.27-1.06Z"/><path class="cls-3" d="M31.05,11.75S32.4.71,41.72.71C52.4.71,52.4,12,52.4,12S44.44,15.09,31.05,11.75Z"/><rect class="cls-3" x="39.59" width="4.28" height="1.27"/><path class="cls-7" d="M45,6.29,41.72,4.9,38.43,6.29s-.17,4.69,3.29,6.05C45.19,11,45,6.29,45,6.29Z"/></g></g></svg>