<svg xmlns="http://www.w3.org/2000/svg" viewBox="0 0 53.41 171.61"><defs><style>.cls-1{fill:#00002e;}.cls-2{fill:#122259;}.cls-3{fill:#efa0a0;}.cls-4{fill:#ed9495;}.cls-5{fill:#e56064;}.cls-6{fill:#d2585b;}.cls-7{fill:#aa4147;}</style></defs><title>people9</title><g id="Слой_2" data-name="Слой 2"><g id="Layer_1" data-name="Layer 1"><path class="cls-1" d="M33.08,156.72s-.86,1.11-.86,4.8c0,1.69,2.19,2.08,4.18,2.08,2.63,0,1.92,6.74,10,6.74,4.55,0,4.39-3.85,2.2-5.89-4.28-4-6.07-3.64-8.85-7.73Z"/><path class="cls-1" d="M5.64,156.59C5.28,157.3,5,159,4.57,160c-1.13,2.51-2.78,3.76-4.2,6.26-.83,1.46-.51,5,3.46,5.36a5.08,5.08,0,0,0,5.83-4.14c.58-3.77.42-6.47,1.34-10,.35-1.4-1.37-2-2.8-2A2.66,2.66,0,0,0,5.64,156.59Z"/><path class="cls-2" d="M10,83.75s-5,24.49-6.38,38.4C2.86,130.06,5,157.32,5,157.32h6.27s2.59-22.79,4.55-30.38a287.81,287.81,0,0,1,9.8-30.64l7.22,60.77,7.07,0s3.24-24,3.83-32c.69-9.31,1-41.29,1-41.29Z"/><path class="cls-3" d="M45.55,38.37s2.92,3.11,5.46,11.8a67.63,67.63,0,0,1,2.4,19L46.82,69S45.21,58.12,44,51.64C42.16,41.55,45.55,38.37,45.55,38.37Z"/><polygon class="cls-3" points="47.59 93.19 51.18 93.19 53.41 69.15 46.74 68.58 47.59 93.19"/><path class="cls-4" d="M48.43,102.15h0l.18-.21c.82-.86,1.45-1.55,1.45-2.22,0-.52,0-.9,0-1.47S49.42,96.3,49,96.3,48,97.63,47.73,97.89a.67.67,0,0,1-.14.15c.53.14,1.46.64.82,2.64C48.3,101,47.64,101.62,48.43,102.15Z"/><path class="cls-3" d="M51.18,93.19a23.68,23.68,0,0,1,.7,5.91,4,4,0,0,1-2.72,3.9c-.2,0-.75,0-.84-.17s-.12-.47.29-.9c.82-.86,1.39-1.55,1.39-2.23,0-.51,0-.89,0-1.47s-.59-1.93-1-1.93S48,97.63,47.73,97.89c-.67.83-1.77.62-1.18-.31a6.6,6.6,0,0,0,1-4.39Z"/><path class="cls-5" d="M43.38,51.78,51,50.17c-.69-8.8-3-14-9.48-18C39.16,30.77,31.45,30,31.45,30h-7.7a18.85,18.85,0,0,0-8.54,2.05c-4.68,2.64-8,8.16-9.86,17.77l6.86,1.72S9.54,73.34,8.78,83.18C8.6,85.51,21,86.16,28.12,86c7.78-.13,16.64-.54,17.53-1.07.56-.33-.28-9.15-.4-11.2-.67-10.71-.57-9.73-1.87-22Z"/><path class="cls-3" d="M37.2,17.18a9.59,9.59,0,0,1-9.6,9.59h0A9.59,9.59,0,0,1,18,17.18v-5A9.59,9.59,0,0,1,27.6,2.58h0a9.6,9.6,0,0,1,9.6,9.59Z"/><path class="cls-3" d="M5.47,49.89l6.05,1.48-3,20.82c-.26,1.82-1.48,3.5-3.3,3.24a3.34,3.34,0,0,1-2.84-3.77Z"/><path class="cls-3" d="M4.24,69.42a3.64,3.64,0,0,0-1.38,5h0a3.63,3.63,0,0,0,5,1.39L25,64.52c1.75-1-.23-4.36-2-3.38Z"/><path class="cls-3" d="M39.22,15.63c-.36,1.06-1.28,1.71-2.06,1.44a1.81,1.81,0,0,1-.78-2.39c.36-1.06,1.28-1.71,2.06-1.44A1.81,1.81,0,0,1,39.22,15.63Z"/><path class="cls-3" d="M16.19,15.63c.36,1.06,1.28,1.71,2.06,1.44A1.81,1.81,0,0,0,19,14.68C18.68,13.62,17.76,13,17,13.24A1.81,1.81,0,0,0,16.19,15.63Z"/><path class="cls-2" d="M33.81,2C25.25-2.47,20.07,3.39,20.07,3.39c-2.74-.13-2.95,3-3.38,6.57a30.41,30.41,0,0,0,.55,6.21,5.13,5.13,0,0,0,.85,2.33l0,0v0c.53.4.72.16,1.06-.24,1-1.13.93-2.6,1.5-4.53a15.46,15.46,0,0,0,.5-2.32c.21-1.47,2.41-2.59,4-2.62A21.45,21.45,0,0,1,30,9.37c6.19,2,6,8.2,7.15,8.31.71.06,1-1.2,1.31-2.84C39.28,11.25,39.69,5,33.81,2Z"/><path class="cls-3" d="M31.83,30.08s0,3.42-4.23,3.42-4.22-3.42-4.22-3.42V23.54h8.45Z"/><path class="cls-5" d="M38.94,10.19C39.36,3.17,35.45,0,27.82,0,18.5,0,16.42,4.33,16.46,10.34Z"/><path class="cls-6" d="M16.46,10.34,19,15s7.38-3.16,17.27,0l2.7-4.78S35.4,10,27.71,10C20.49,10,16.46,10.34,16.46,10.34Z"/><path class="cls-7" d="M36.14,15.19a27,27,0,0,0-17.07,0l-.44-.84a28.5,28.5,0,0,1,18,0Z"/><path class="cls-4" d="M31.89,57h0c0,.09-.07.18-.1.29-.36,1.24-.66,2.23-1.29,2.6l-1.39.82c-.51.31-2.18.46-2.4.08s.66-1.75.79-2.1c0-.07.05-.14.07-.21.4.42,1.39,1,2.93-.69C30.77,57.48,31,56.53,31.89,57Z"/><path class="cls-3" d="M25,64.52a26.13,26.13,0,0,0,5.95-2.61c1.26-.74,2.78-2.59,2.17-4.71-.07-.22-.41-.71-.63-.7s-.5.14-.68.77c-.36,1.24-.7,2.17-1.33,2.54l-1.39.83c-.51.3-2.14.51-2.36.13s.66-1.75.79-2.1c.4-1.08-.4-2-.95-.94A7.21,7.21,0,0,1,23,61.14Z"/></g></g></svg>