<svg xmlns="http://www.w3.org/2000/svg" viewBox="0 0 61.75 172.73"><defs><style>.cls-1{fill:#efa0a0;}.cls-2{fill:#00002e;}.cls-3{fill:#122259;}.cls-4{fill:#fff;}.cls-5{fill:#ed9495;}.cls-6{fill:#fbd66f;}.cls-7{fill:#000008;}</style></defs><title>people12</title><g id="Слой_2" data-name="Слой 2"><g id="Layer_1" data-name="Layer 1"><path class="cls-1" d="M8.44,65.37c.11-.38,2.11-4.85,4.09-8.6H2.22C1.56,58.45.92,60.19.29,62L0,62.8v.83A155.05,155.05,0,0,0,4.8,90.74l3.71-.07C7.33,74.19,7.69,67.93,8.44,65.37Z"/><path class="cls-2" d="M35.06,160.32s-.5.94-.5,4.05c0,1.43,1.85,1.75,3.53,1.75,2.22,0,3.14,6.61,9.93,6.61,3.84,0,4.58-2.68,2.74-4.41-3.62-3.36-7.43-6.07-9.88-8Z"/><path class="cls-2" d="M26.1,160.32s.73.94.73,4.05c0,1.43-1.85,1.75-3.53,1.75-2.22,0-3.14,6.61-9.93,6.61-3.84,0-4.59-2.68-2.74-4.41,3.61-3.36,7.42-6.07,9.88-8Z"/><path class="cls-3" d="M47.46,86.08H14.77l5.43,74.47,6-.08,4.86-62.34,6,28.27h0l-2.11,34.07,6.1,0,9.68-34h0Z"/><path class="cls-4" d="M47.46,86.08V37.45c0-1.79-1.57-2.92-3.23-3.6l-9-3.59H27a79.57,79.57,0,0,0-9,3.59c-1.55.89-3.41,2.1-3.41,2.94l.18,49.29Z"/><polygon class="cls-1" points="35.26 30.27 31.05 34.68 26.97 30.27 26.97 26.21 35.26 26.21 35.26 30.27"/><path class="cls-1" d="M40.3,21.44c0,1.76-4.54,7.17-9.19,7.17-4.47,0-9.17-5.05-9.17-7.17v-6.8a9.18,9.18,0,0,1,9.17-9.18h0a9.18,9.18,0,0,1,9.19,9.18Z"/><path class="cls-1" d="M41.94,18.48c-.34,1-1.22,1.63-2,1.38a1.74,1.74,0,0,1-.75-2.29,1.75,1.75,0,0,1,2-1.38A1.74,1.74,0,0,1,41.94,18.48Z"/><path class="cls-1" d="M20.29,18.48c.34,1,1.23,1.63,2,1.38A1.75,1.75,0,0,0,23,17.57a1.75,1.75,0,0,0-2-1.38A1.75,1.75,0,0,0,20.29,18.48Z"/><path class="cls-3" d="M21.94,18s1-3.55,3.16-5.14l1.32-2s1.43-.38,4.69.94,4.12,3.3,7.31,2.59A30.71,30.71,0,0,1,40,18.23,28.93,28.93,0,0,0,41,13.68c.24-2.2.59-7.9-6.3-9.7C27.47,2.1,24.4,6.68,24.4,6.68S23.74,6,21.94,8.76c-1.31,2-1.39,5.44,0,9.47"/><path class="cls-3" d="M40.34,18.61a6.93,6.93,0,0,0-1.47-3.22s.59,4.15-1,6.17c-1.38,1.77-5.68,4.53-6.9,4.53s-5.53-2.76-6.9-4.53c-1.57-2-1-6.68-1-6.68s-1.47,2.32-1.49,3.73c0,0-.51,2.88.69,4.69s5.57,4.83,5.57,4.83A9,9,0,0,0,31,29.25a9,9,0,0,0,3.09-1.12s4.36-2.67,5.65-4.6S40.34,18.61,40.34,18.61Z"/><path class="cls-3" d="M36.39,24.33l-.9-1.39a7.56,7.56,0,0,0-4.17-1.28c-2.88,0-4.62.66-5,1.08a7,7,0,0,0-1.07,1.52l-1.66-.86a9.4,9.4,0,0,1,1.41-2c1-1,3.49-1.64,6.36-1.64a9.21,9.21,0,0,1,5.44,1.77l.12.09L38,23.32Z"/><path class="cls-4" d="M11.35,59.36a51.31,51.31,0,0,1,3.33-6.52L15,36c-4.54,3.34-9,9.26-13.29,20.79Z"/><path class="cls-5" d="M9.31,99.24h0a1.42,1.42,0,0,0-.22-.18c-1-.71-1.74-1.28-1.87-1.94s-.18-.9-.29-1.48.29-2.06.69-2.14,1.32,1.14,1.59,1.36l.17.13c-.5.22-1.34.9-.33,2.78C9.23,98.11,10,98.57,9.31,99.24Z"/><path class="cls-1" d="M4.74,90.55a31.52,31.52,0,0,0,.56,6.3,4.06,4.06,0,0,0,3.44,3.38c.22,0,.75-.14.81-.34s0-.47-.46-.83c-1-.71-1.68-1.29-1.81-2-.09-.52-.18-.89-.29-1.48s.23-2,.63-2.12,1.32,1.14,1.59,1.36c.82.7,1.88.29,1.12-.54a6.72,6.72,0,0,1-1.87-4.18Z"/><path class="cls-1" d="M59.17,55.73l-9.77,1c1.92,3.67,3.81,7.88,3.91,8.25.76,2.56,1.11,8.82-.07,25.3L57,90.4a155.93,155.93,0,0,0,4.78-27.11v-.84l-.29-.79C60.88,60,59.78,57.31,59.17,55.73Z"/><path class="cls-4" d="M50.4,59a46.65,46.65,0,0,0-3.24-6.18L46.25,35c4.55,3.33,9.13,9.89,13.39,21.43Z"/><path class="cls-5" d="M52.44,98.9h0l.22-.18c1-.7,1.74-1.27,1.87-1.94.1-.52.18-.89.29-1.47s-.28-2.06-.69-2.14-1.32,1.13-1.59,1.36l-.16.12c.49.22,1.33.91.32,2.79C52.52,97.76,51.75,98.22,52.44,98.9Z"/><path class="cls-1" d="M57,90.21a31.79,31.79,0,0,1-.55,6.29A4.09,4.09,0,0,1,53,99.89c-.22,0-.75-.14-.81-.34s0-.48.46-.84c1-.7,1.68-1.29,1.81-2,.1-.51.18-.89.29-1.47s-.22-2-.63-2.12-1.32,1.13-1.59,1.36c-.82.69-1.88.28-1.12-.54a6.75,6.75,0,0,0,1.87-4.19Z"/><path class="cls-3" d="M28.59,32.73a5.85,5.85,0,0,0,1.14,1.44,2,2,0,0,0,1.34.51,1.87,1.87,0,0,0,.39,0,1.55,1.55,0,0,0,.36-.08,2.85,2.85,0,0,0,.71-.37,3,3,0,0,0,.66-.63,3.89,3.89,0,0,0,.28-.39l.12-.21.06-.11a.13.13,0,0,1,.12-.09h0a.27.27,0,0,1,.21.07c.08.08,0,.11,0,.16l0,.13-.06.27a5.25,5.25,0,0,1-.17.52,4.25,4.25,0,0,1-.53,1,3,3,0,0,1-.93.82,2.86,2.86,0,0,1-.61.24,3.1,3.1,0,0,1-.62.08A2.7,2.7,0,0,1,28.85,35a3.32,3.32,0,0,1-.7-2.15.23.23,0,0,1,.23-.23.24.24,0,0,1,.2.11Z"/><polygon class="cls-2" points="30.43 34.56 28.48 36.72 29.95 38.35 32.28 38.35 33.76 36.72 31.8 34.56 30.43 34.56"/><polygon class="cls-3" points="32.28 38.35 29.95 38.35 27.48 65.4 31.02 72.47 34.98 65.6 32.28 38.35"/><path class="cls-2" d="M31.11,34.61l4.15-4.42,2.09.9s2.59,2.71,2.87,5.76l-3-1.8Z"/><path class="cls-2" d="M31,34.61,27,30.24l-2.23.8s-2.55,2.76-2.83,5.81L25,35.05Z"/><polyline class="cls-2" points="47.47 86.08 47.46 82.99 14.77 82.99 14.77 86.08"/><rect class="cls-4" x="28.57" y="83.02" width="4.54" height="3.05"/><path class="cls-6" d="M22.51,53.35c-2.67,0-3.82-5.84-3.82-5.84A1.44,1.44,0,0,0,20,47a2.41,2.41,0,0,0,.55-1.42h4.19a2.52,2.52,0,0,0,.35,1.33,1.51,1.51,0,0,0,1.3.65S25.29,53.35,22.51,53.35Z"/><path class="cls-3" d="M36.05,46.11v5.77a1.89,1.89,0,0,0,1.89,1.88H41.3a1.88,1.88,0,0,0,1.88-1.88V46.11Z"/><rect class="cls-2" x="35.66" y="45.56" width="7.92" height="2.1"/><path class="cls-4" d="M39.52,92.9A3.5,3.5,0,1,1,43,89.41,3.49,3.49,0,0,1,39.52,92.9Zm0-5.89a2.4,2.4,0,1,0,2.41,2.4A2.41,2.41,0,0,0,39.52,87Z"/><path class="cls-4" d="M42.54,92.9A3.5,3.5,0,1,1,46,89.41,3.5,3.5,0,0,1,42.54,92.9Zm0-5.89a2.4,2.4,0,1,0,2.4,2.4A2.41,2.41,0,0,0,42.54,87Z"/><rect class="cls-3" x="38.29" y="82.44" width="5.48" height="4.21"/><polygon class="cls-4" points="22.74 3.27 19.35 8.71 20.92 11.49 41.04 11.49 42.07 9.15 39.29 3.39 31.07 0 22.74 3.27"/><path class="cls-2" d="M41,11.5H20.92l.62-2.31s1.78-1.34,9.22-1.34C38,7.85,40,9.19,40,9.19Z"/><path class="cls-7" d="M20.93,11.34c0,.06,0,.11,0,.16,0,2.55,4.5,4.62,10,4.62s10-2.07,10-4.62v-.16Z"/><path class="cls-6" d="M31,6.82c-1.62,0-2.3-3.5-2.3-3.5A.85.85,0,0,0,29.49,3a1.54,1.54,0,0,0,.34-.86h2.51a1.47,1.47,0,0,0,.22.8.9.9,0,0,0,.78.39S32.67,6.82,31,6.82Z"/><path class="cls-6" d="M41.23,11.34c0,.43-.2.77-.44.77s-.45-.34-.45-.77.2-.76.45-.76S41.23,10.92,41.23,11.34Z"/><path class="cls-6" d="M21.65,11.34c0,.43-.2.77-.45.77s-.44-.34-.44-.77.2-.76.44-.76S21.65,10.92,21.65,11.34Z"/><rect class="cls-2" x="17.06" y="81.15" width="4.1" height="11.2"/><rect class="cls-3" x="16.09" y="82.37" width="6.05" height="4.21"/></g></g></svg>