<svg xmlns="http://www.w3.org/2000/svg" viewBox="0 0 93.38 193"><defs><style>.cls-1{fill:#efa0a0;}.cls-2{fill:none;stroke:#122259;stroke-linecap:round;stroke-linejoin:round;stroke-width:1.46px;}.cls-3{fill:#e56064;}.cls-4{fill:#bbb;}.cls-5{fill:#122259;}.cls-6{fill:#fff;}.cls-7{fill:#fbd66f;}</style></defs><title>people7</title><g id="Слой_2" data-name="Слой 2"><g id="Layer_1" data-name="Layer 1"><path class="cls-1" d="M31.84,80.67a4.28,4.28,0,0,0,2.68,4.89c1.78.91,4.8-1.32,5.49-3.19,1.06-2.88,3-9.27,3-9.27,0-1.94,0-21.51-.42-20.9C37.83,59.1,31.84,80.67,31.84,80.67Z"/><path class="cls-1" d="M38.54,79.85S26,66.93,26,65.43c0-2.56,2.74-5.61,2.53-7.08-.57-3.92-1.16-4.54-2.88-4.54s-3.88,1.3-3.88,6.39a35.15,35.15,0,0,0,1.82,8.44c1.77,4.17,9.22,15.69,9.22,15.69a3.54,3.54,0,0,0,5.14.6A3.63,3.63,0,0,0,38.54,79.85Z"/><path class="cls-2" d="M28.93,65.17a7.82,7.82,0,0,0,3.34,6.33c3.59,2.75,5.11,7.15,2.55,11.64-1.17,2-15.23,14.57-3,21.48,4.9,2.77.62,13.67,11.87,17.26,5.22,1.66,17.21-.23,15.16-17.83"/><rect class="cls-3" x="24.07" y="50.09" width="3.69" height="16.34" transform="translate(-18.76 12.76) rotate(-20.5)"/><polygon class="cls-4" points="0 0 0.91 2.44 4.01 2.83 21.55 49.71 23.6 48.95 5.54 0.7 0 0"/><rect class="cls-3" x="19.57" y="48.87" width="6.34" height="1.79" transform="translate(-16.01 11.14) rotate(-20.54)"/><rect class="cls-3" x="44.11" y="37.77" width="43.92" height="68.29" rx="6.78" ry="6.78"/><path class="cls-5" d="M73.05,109.33l2.43-55.91c0-1.83-1.61-3-3.31-3.68A64.13,64.13,0,0,0,63,47.5s-.66,4-4.29,4c-3.31,0-4.2-4-4.2-4s-6.78.87-9.17,2.24c-1.58.91-3.41,1.84-3.41,5.21l3,54.38Z"/><path class="cls-6" d="M71.63,58.35H46.55L42.84,75l2.79,71,4.73,32.1a8.47,8.47,0,0,0,3,.35c2.14,0,2.39-.22,2.39-.22l3.86-55.93,2.77,55.93s.25.22,2.39.22a8.36,8.36,0,0,0,3-.35L72.44,146,74.8,76.34Z"/><path class="cls-1" d="M63,47.51s-.48,4.07-4.31,4.07c-3.54,0-4.18-4.07-4.18-4.07V43.35H63Z"/><path class="cls-1" d="M68.15,38.47c0,1.81-4.64,7.33-9.39,7.33-4.58,0-9.39-5.16-9.39-7.33v-7a9.39,9.39,0,0,1,9.39-9.39h0a9.39,9.39,0,0,1,9.39,9.39Z"/><path class="cls-1" d="M69.83,35.45c-.35,1-1.25,1.66-2,1.4a1.77,1.77,0,0,1-.76-2.34c.35-1,1.25-1.66,2-1.4A1.77,1.77,0,0,1,69.83,35.45Z"/><path class="cls-1" d="M47.68,35.45c.35,1,1.25,1.66,2,1.4a1.77,1.77,0,0,0,.76-2.34c-.34-1-1.25-1.66-2-1.4A1.78,1.78,0,0,0,47.68,35.45Z"/><path class="cls-5" d="M50.36,178.06c-.35.7-.63,2.38-1.06,3.35-1.12,2.5-2.76,3.74-4.18,6.23-.82,1.46-.5,5,3.45,5.33a5,5,0,0,0,5.8-4.11c.57-3.75.42-6.44,1.33-10,.35-1.39-1.36-2-2.79-2A2.69,2.69,0,0,0,50.36,178.06Z"/><path class="cls-5" d="M67.65,178.06c.36.7.64,2.38,1.07,3.35,1.12,2.5,2.76,3.74,4.17,6.23.83,1.46.51,5-3.44,5.33a5,5,0,0,1-5.8-4.11c-.57-3.75-.42-6.44-1.33-10-.36-1.39,1.36-2,2.78-2C66.21,177,67.22,177.19,67.65,178.06Z"/><path class="cls-5" d="M68,35.23a19,19,0,0,0,.88-5.16c0-4.17-2.2-9.32-10.1-9.32-5.92,0-9.68,4.75-9.68,10a24,24,0,0,0,.3,4.93c.09.55.7.38.75,0,.18-1.49,0-5.54,1.19-6.73,0,0,1,2.3,5.3,2.3s4.55-3.53,7.58-3.53a3.65,3.65,0,0,1,2.88,1.68c.68,1.07.44,4,.18,5.53C67.17,35.44,67.83,35.72,68,35.23Z"/><polygon class="cls-5" points="55.7 178.87 57.77 155.43 46.32 155.43 50.01 179.08 55.7 178.87"/><polygon class="cls-5" points="62.32 178.87 60.52 155.43 71.97 155.43 68.01 179.08 62.32 178.87"/><polygon class="cls-6" points="69.54 62.47 64.75 62.47 64.75 47.76 69.54 48.65 69.54 62.47"/><polygon class="cls-6" points="47.55 62.47 52.34 62.47 52.34 47.76 47.55 48.65 47.55 62.47"/><path class="cls-5" d="M68.13,60.27a1.07,1.07,0,1,1-1.07-1.07A1.06,1.06,0,0,1,68.13,60.27Z"/><path class="cls-5" d="M51,60.27a1.07,1.07,0,1,1-1.07-1.07A1.06,1.06,0,0,1,51,60.27Z"/><polygon class="cls-5" points="43.86 105.45 73.79 105.45 73.95 100.72 43.66 100.72 43.86 105.45"/><rect class="cls-4" x="54.88" y="100.72" width="7.85" height="4.73"/><path class="cls-7" d="M64.11,40.67l-1-.74c4-2.86,5.53-8,5.53-8L69,33.05C69,33.89,67.92,37.6,64.11,40.67Z"/><path class="cls-7" d="M53.62,40.67l1-.74c-4-2.86-5.53-8-5.54-8l-.27,1.17C48.77,33.89,49.82,37.6,53.62,40.67Z"/><path class="cls-5" d="M61.15,38.06a5,5,0,0,0-2.59-2.42h0a5,5,0,0,0-2.59,2.42c-1.1,2.3-4.38,1.74-3.28,5.29,0,0,1.62,2.62,5.87,2.62h0c4.25,0,5.87-2.62,5.87-2.62C65.53,39.8,62.26,40.36,61.15,38.06Z"/><path class="cls-4" d="M67.53,41.5a4,4,0,1,1-4-4A4,4,0,0,1,67.53,41.5Z"/><path class="cls-5" d="M66.07,41.5A2.52,2.52,0,1,1,63.56,39,2.51,2.51,0,0,1,66.07,41.5Z"/><path class="cls-4" d="M58.15,41.5a4,4,0,1,1-4-4A4,4,0,0,1,58.15,41.5Z"/><path class="cls-5" d="M56.7,41.5A2.52,2.52,0,1,1,54.18,39,2.51,2.51,0,0,1,56.7,41.5Z"/><path class="cls-5" d="M42.58,74.66l.56-1.83c0-1.09,1-8.1,1-13.63-.06-4.27-1.38-7.27-1.56-7-3.09,4.51-4.92,8.78-7.07,15.71Z"/><path class="cls-7" d="M24.34,70.72s3.92-1.88,1.65-5.16c-1.52-2.18,2.86-5.83,2.63-7.36-.59-4.09-1.21-4.74-3-4.74s-4.05,1.35-4.05,6.66a36.71,36.71,0,0,0,1.9,8.8C23.69,69.42,24,70,24.34,70.72Z"/><path class="cls-5" d="M58.82,65.41a9.25,9.25,0,1,0,9.25,9.25A9.26,9.26,0,0,0,58.82,65.41Zm0,2a7.15,7.15,0,0,1,4.69,1.78L52.92,78.77a7.13,7.13,0,0,1-1.31-4.11A7.22,7.22,0,0,1,58.82,67.45Zm0,14.41a7.16,7.16,0,0,1-4.49-1.61l10.54-9.49a7.19,7.19,0,0,1-6.05,11.1Z"/><path class="cls-7" d="M66.91,48.16s-2.84,36,7,47.57c0,0,2.15-2.56.43-7.1,0,0-3.55-27.2-2.21-38.89C72.17,49.74,70.66,47.76,66.91,48.16Z"/><path class="cls-7" d="M50.45,48.16s2.84,36-7,47.57a10.34,10.34,0,0,1-.27-7.18s2-27.22,2-38.81C45.19,49.74,46.71,47.76,50.45,48.16Z"/><path class="cls-1" d="M74.09,50.87s11.45,12.92,17,19.58l-4.53,5.11-12-9.38Z"/><path class="cls-5" d="M82.16,59.09c-3.29-3.76-8.07-8.22-8.07-8.22l-.63,8.73,1.21,7.71,4.65,4.49Z"/><path class="cls-1" d="M91.09,70.45s4.63,5.11.72,9.17l-5.25-4.06Z"/><path class="cls-1" d="M86.56,75.56l-8.8,17.28A2.1,2.1,0,0,0,79.2,96L91.81,79.62Z"/><path class="cls-7" d="M78.57,92.75a37.14,37.14,0,0,0-10.7,2.44.76.76,0,0,0,.29,1.46.86.86,0,0,0,.27-.05,27.65,27.65,0,0,1,3.73-1.15,18.57,18.57,0,0,0-2.67,1.42.76.76,0,0,0,.42,1.39.72.72,0,0,0,.42-.13,18.07,18.07,0,0,1,3-1.56,8.82,8.82,0,0,0-1.91,2,.77.77,0,0,0,.62,1.2.76.76,0,0,0,.62-.33,7,7,0,0,1,1.61-1.68,8,8,0,0,0-.88,1.43.76.76,0,0,0,.37,1,.7.7,0,0,0,.31.07.75.75,0,0,0,.69-.44,5.68,5.68,0,0,1,.65-1,7.94,7.94,0,0,1,2.8-2.09,3.12,3.12,0,0,0,1.47-1.36C80.05,94.34,79,92.72,78.57,92.75Z"/><path class="cls-7" d="M77.58,92.84a8.64,8.64,0,0,0-2.73-.41l-.12.82s1.84-.2,2.34-.32Z"/></g></g></svg>